<?xml version="1.0" standalone="no"?>
<!DOCTYPE svg PUBLIC "-//W3C//DTD SVG 20010904//EN"
 "http://www.w3.org/TR/2001/REC-SVG-20010904/DTD/svg10.dtd">
<svg version="1.0" xmlns="http://www.w3.org/2000/svg"
 width="843.000000pt" height="851.000000pt" viewBox="0 0 843.000000 851.000000"
 preserveAspectRatio="xMidYMid meet">
<metadata>
Created by potrace 1.16, written by Peter Selinger 2001-2019
</metadata>
<g transform="translate(0.000000,851.000000) scale(0.100000,-0.100000)"
fill="#000000" stroke="none">
<path d="M4763 7748 c1 -37 7 -57 19 -66 23 -17 23 -32 0 -32 -15 0 -21 -13
-30 -67 -21 -115 -35 -178 -42 -188 -12 -16 -40 -121 -40 -146 0 -24 -34 -181
-52 -238 -7 -25 -7 -35 2 -41 8 -5 7 -9 -4 -13 -19 -8 -21 -33 -3 -40 6 -3 1
-6 -14 -6 -25 -1 -49 -17 -49 -34 0 -5 13 -7 29 -4 21 4 36 0 52 -13 25 -23
28 -23 48 -11 11 7 12 13 3 24 -8 9 -9 23 -2 46 20 72 50 117 50 76 0 -8 -5
-15 -11 -15 -6 0 -9 -8 -7 -18 3 -10 -1 -23 -9 -31 -15 -13 -12 -29 15 -93 13
-29 19 -34 29 -26 10 8 12 7 7 -6 -3 -9 -1 -16 5 -16 12 0 25 28 37 77 5 18 4
24 -5 19 -22 -14 -33 5 -17 30 9 13 16 30 16 39 0 9 7 27 16 40 10 16 14 34
10 50 -4 17 -1 31 9 41 18 18 21 99 3 110 -17 11 -59 -46 -52 -71 4 -16 3 -17
-5 -5 -9 13 -11 12 -11 -5 -1 -19 -29 -78 -30 -61 0 4 7 34 15 65 8 31 16 72
19 91 40 278 70 396 110 429 9 7 16 18 16 24 0 6 -3 7 -7 4 -3 -4 -12 1 -18
10 -11 14 -8 19 19 34 17 9 32 26 34 37 3 18 -4 22 -44 28 -33 5 -49 3 -52 -5
-6 -18 -30 -13 -37 9 -12 38 -24 20 -22 -32z"/>
<path d="M4422 7747 c-23 -27 8 -158 45 -195 19 -19 16 -45 -7 -72 -18 -20
-20 -37 -20 -150 0 -101 3 -130 15 -140 19 -16 19 -29 -2 -52 -14 -16 -15 -23
-5 -39 11 -17 9 -25 -8 -49 -11 -15 -17 -35 -14 -43 3 -8 1 -18 -5 -22 -23
-13 -12 -63 18 -84 26 -19 30 -19 42 -4 8 8 12 27 11 40 -2 13 2 31 9 40 10
12 14 80 16 277 2 296 6 338 33 402 35 81 30 89 -64 100 -40 5 -55 3 -64 -9z"/>
<path d="M3640 7723 c0 -5 6 -17 14 -28 7 -11 16 -31 19 -45 3 -14 17 -72 32
-130 14 -58 29 -119 33 -137 4 -17 20 -41 36 -54 27 -21 28 -24 21 -87 -4 -36
-13 -75 -21 -87 -12 -19 -12 -34 1 -107 8 -48 22 -113 31 -145 9 -32 21 -77
27 -100 11 -47 21 -51 54 -28 18 13 21 20 13 39 -5 13 -6 33 -3 44 2 11 -3 48
-12 83 -14 57 -34 178 -39 249 -9 111 -20 188 -29 205 -6 11 -11 40 -12 65 -1
25 -9 57 -19 72 -9 14 -18 45 -20 69 -4 57 -33 106 -66 112 -14 2 -33 8 -42
12 -10 4 -18 3 -18 -2z"/>
<path d="M3955 7578 c4 -13 9 -39 12 -58 3 -19 12 -39 19 -43 24 -14 14 -77
-12 -77 -18 0 -18 -24 0 -39 8 -7 14 -30 14 -56 0 -24 3 -54 7 -66 6 -18 4
-21 -10 -15 -16 6 -17 0 -10 -61 12 -110 14 -163 4 -169 -15 -9 -10 -56 12
-101 16 -34 18 -47 10 -57 -9 -10 -9 -16 -1 -21 7 -4 9 -19 5 -36 -4 -19 -2
-36 6 -45 10 -13 10 -17 -1 -24 -7 -4 -11 -17 -8 -28 7 -24 -17 -62 -37 -62
-8 0 -19 -9 -25 -20 -12 -22 -46 -27 -53 -7 -3 6 -6 2 -6 -10 -1 -16 5 -23 17
-23 22 0 72 22 72 32 0 11 68 40 82 35 8 -3 3 -9 -13 -15 -15 -6 -29 -18 -32
-26 -5 -13 -1 -15 21 -10 36 9 42 13 42 29 0 14 29 29 39 19 3 -3 -1 -11 -10
-17 -8 -7 -18 -22 -21 -34 -6 -21 -3 -23 33 -23 35 0 39 3 39 25 0 14 -3 25
-7 25 -5 0 -9 20 -11 45 -2 34 2 50 17 66 18 20 19 24 6 50 -8 15 -24 30 -35
34 -11 3 -21 14 -22 23 -1 9 -2 24 -3 32 0 8 -4 20 -8 27 -4 6 -10 48 -12 93
-3 45 -10 91 -16 103 -15 27 -20 316 -7 377 5 25 12 60 15 79 5 33 5 34 -24
28 -24 -5 -35 -1 -53 19 -29 30 -45 31 -35 2z"/>
<path d="M5485 7543 c-8 -32 -25 -83 -36 -113 -27 -70 -34 -116 -20 -124 17
-11 13 -23 -9 -29 -11 -3 -25 -18 -30 -33 -19 -49 -92 -194 -100 -199 -5 -3
-14 -30 -20 -59 -6 -30 -19 -61 -30 -71 -10 -9 -28 -42 -41 -73 -12 -31 -26
-62 -31 -68 -8 -11 -47 -122 -48 -136 0 -5 9 -8 19 -8 26 0 36 -17 20 -36 -11
-13 -6 -15 36 -12 60 4 65 11 93 153 16 83 56 204 101 310 11 24 24 64 42 125
7 25 25 68 40 95 15 28 30 61 34 75 4 14 36 63 71 109 49 66 61 88 54 102 -9
16 -87 49 -116 49 -7 0 -20 -26 -29 -57z"/>
<path d="M4211 7459 c-26 -10 -26 -21 6 -104 16 -40 19 -71 17 -153 -1 -57 -7
-109 -12 -115 -6 -7 -13 -33 -17 -58 -5 -35 -3 -49 9 -62 9 -9 12 -18 7 -22
-5 -3 -9 -29 -8 -58 2 -50 3 -52 31 -52 l28 0 2 112 c1 62 6 116 9 120 4 3 0
17 -9 31 -11 17 -13 27 -5 35 6 6 11 35 11 64 0 29 6 70 14 90 17 45 30 159
19 166 -20 11 -80 15 -102 6z"/>
<path d="M5737 7347 c-3 -8 -1 -20 4 -28 15 -24 10 -47 -16 -75 -16 -18 -25
-39 -25 -60 0 -22 -5 -34 -14 -34 -19 0 -47 -45 -40 -64 3 -9 -5 -21 -20 -31
-14 -10 -26 -21 -26 -25 0 -4 -21 -38 -46 -76 -25 -38 -48 -81 -51 -96 -3 -15
-11 -29 -19 -32 -8 -3 -14 -11 -14 -18 0 -7 -6 -25 -14 -40 -8 -15 -12 -36 -9
-47 3 -13 -2 -23 -15 -30 -27 -14 -36 -45 -22 -72 16 -28 -2 -48 -25 -29 -13
11 -19 10 -33 -5 -9 -10 -12 -15 -5 -11 14 8 27 -10 18 -24 -5 -8 -12 -7 -23
2 -9 7 -13 8 -9 2 4 -7 -13 -21 -42 -35 -36 -18 -51 -32 -58 -54 -8 -27 -5
-34 29 -67 23 -24 38 -47 38 -62 0 -14 5 -28 10 -31 6 -3 10 3 10 14 0 14 6
21 18 21 12 0 28 18 45 49 33 59 35 85 7 76 -21 -7 -60 10 -60 26 0 7 12 8 30
4 34 -7 75 13 103 51 15 21 16 24 2 24 -24 0 -17 35 10 50 14 7 25 18 25 23 0
5 9 20 20 34 11 14 20 36 20 48 0 12 9 34 20 48 11 14 20 32 20 40 0 8 7 20
15 27 9 7 14 19 11 26 -3 7 4 24 15 39 34 42 69 114 69 140 0 15 11 33 30 47
17 12 30 31 30 41 0 19 36 60 62 70 10 4 10 8 -2 16 -12 9 -12 11 3 17 26 10
20 22 -14 29 -21 5 -27 10 -19 15 7 4 28 3 47 -2 25 -7 39 -6 47 2 14 15 -25
49 -66 57 -16 3 -31 10 -34 14 -8 14 -31 11 -37 -4z"/>
<path d="M3040 7273 c0 -38 33 -133 47 -133 10 0 12 -8 8 -32 -3 -21 0 -43 9
-58 8 -14 20 -35 25 -47 6 -12 20 -27 31 -33 12 -6 19 -18 16 -25 -3 -8 0 -15
6 -17 6 -2 12 -11 13 -19 10 -63 28 -128 35 -124 5 3 11 1 15 -5 3 -5 0 -10
-7 -10 -9 0 -10 -2 -2 -8 7 -4 22 -26 34 -49 12 -24 25 -43 29 -43 4 0 7 -26
7 -59 0 -56 -1 -59 -33 -76 -36 -20 -53 -53 -32 -66 7 -4 22 -3 33 3 14 8 21
8 24 0 2 -7 14 -1 28 13 27 27 55 35 34 10 -23 -28 0 -30 27 -3 22 23 24 29
13 42 -7 9 -9 16 -4 17 5 0 0 4 -11 9 -16 6 -14 8 13 7 18 0 35 -4 38 -9 3 -4
10 -8 15 -8 6 0 -6 20 -25 44 -20 23 -36 51 -36 60 0 10 -9 20 -20 23 -11 3
-20 12 -20 19 0 8 -4 14 -10 14 -20 0 -25 2 -38 13 -11 9 -11 13 3 23 13 10
16 20 11 41 -10 38 -84 183 -107 209 -11 11 -19 26 -19 34 0 27 -51 121 -62
114 -7 -5 -9 1 -4 19 5 20 2 29 -15 37 -11 6 -18 17 -16 23 6 18 -22 67 -38
67 -8 0 -15 -8 -15 -17z"/>
<path d="M2820 7248 c0 -45 29 -129 80 -235 56 -117 57 -120 91 -208 13 -33
33 -76 46 -96 15 -25 18 -40 11 -47 -14 -14 0 -72 17 -72 7 0 24 -14 37 -30
17 -21 29 -29 41 -24 9 3 17 10 17 15 0 6 9 22 20 37 26 35 19 56 -26 77 -37
17 -59 48 -50 71 3 7 0 26 -7 41 -19 44 -78 142 -88 149 -5 3 -9 18 -9 34 0
16 -7 33 -16 38 -10 5 -20 30 -24 59 -6 36 -24 72 -62 128 -57 84 -78 101 -78
63z"/>
<path d="M3310 7242 c-51 -25 -51 -57 0 -112 22 -24 43 -54 46 -65 3 -12 16
-33 30 -48 13 -14 24 -37 24 -49 0 -13 7 -33 15 -45 10 -14 12 -24 5 -28 -12
-8 -5 -179 9 -216 9 -25 12 -26 58 -17 26 5 54 9 61 10 18 2 42 39 43 69 1 13
-3 42 -8 64 -6 22 -14 52 -17 68 -8 33 -20 35 -33 5 -6 -15 -5 -34 6 -66 13
-35 13 -46 4 -49 -16 -6 -17 -45 -1 -61 9 -9 8 -12 -5 -12 -17 0 -21 8 -17 47
1 13 -7 27 -19 35 -22 14 -28 43 -11 53 7 4 6 13 -1 26 -5 11 -11 39 -12 62
-1 25 -10 56 -24 76 -13 19 -23 41 -23 50 0 9 -9 30 -20 48 -17 29 -18 33 -4
41 12 7 14 19 9 56 -12 76 -45 93 -115 58z"/>
<path d="M3707 7123 c-4 -6 -16 -9 -27 -6 -25 7 -26 -5 -2 -23 16 -12 15 -13
-5 -14 -28 0 -30 -16 -3 -25 27 -9 25 -25 -2 -25 l-23 -1 23 -18 c12 -11 22
-26 22 -35 0 -19 -16 -21 -24 -3 -3 6 -3 1 0 -13 3 -14 14 -37 25 -52 10 -15
19 -38 19 -52 0 -14 5 -28 10 -31 6 -3 10 4 10 16 0 16 5 20 20 16 22 -6 23 2
12 68 l-7 40 -14 -32 c-7 -18 -20 -33 -28 -33 -11 0 -11 4 -3 20 6 11 8 34 6
52 -3 18 -3 27 0 21 3 -7 12 -13 19 -13 10 0 13 19 14 71 0 60 -2 69 -13 59
-11 -9 -15 -7 -18 7 -2 12 -6 14 -11 6z"/>
<path d="M5119 7050 c-29 -39 -61 -115 -53 -123 3 -3 1 -20 -5 -39 -6 -18 -13
-45 -15 -59 -3 -14 -19 -42 -35 -63 -26 -33 -28 -40 -18 -66 12 -32 34 -40 43
-15 3 8 13 17 22 20 21 6 38 60 48 145 3 36 13 72 21 81 21 25 31 71 24 114
l-6 40 -26 -35z"/>
<path d="M1860 6882 c-46 -41 -48 -69 -4 -58 20 5 34 -5 86 -60 35 -36 67 -74
72 -84 4 -10 42 -44 82 -76 44 -35 74 -65 74 -76 0 -20 28 -64 71 -113 15 -16
30 -40 34 -52 7 -26 20 -30 32 -8 5 9 17 12 30 9 17 -5 23 -16 28 -55 4 -27
10 -49 14 -49 10 0 41 -67 41 -88 0 -9 13 -36 28 -59 l27 -41 68 54 c37 30 67
61 67 68 0 8 -26 31 -57 52 -95 64 -166 124 -209 176 -23 27 -55 58 -72 68
-31 19 -92 94 -92 113 0 5 -38 50 -83 101 -46 50 -103 119 -126 154 -23 34
-48 62 -55 62 -7 0 -33 -17 -56 -38z"/>
<path d="M5947 6872 c-27 -28 -35 -43 -31 -60 5 -18 0 -25 -28 -36 -19 -8 -40
-27 -47 -42 -6 -15 -23 -35 -36 -46 -19 -15 -25 -29 -25 -58 0 -29 -5 -40 -18
-44 -10 -4 -30 -23 -45 -44 -15 -20 -45 -61 -67 -91 -40 -55 -42 -71 -12 -71
10 0 23 -9 30 -20 19 -31 42 -25 42 10 0 17 6 33 14 36 32 12 107 129 189 292
105 210 114 256 34 174z"/>
<path d="M2723 6865 c14 -71 21 -91 36 -108 9 -10 23 -40 32 -65 9 -30 24 -51
38 -57 18 -8 21 -16 17 -38 -7 -35 9 -67 32 -67 10 0 27 -7 38 -15 19 -14 18
-15 -6 -34 -23 -19 -24 -21 -9 -37 20 -19 59 -11 59 13 0 10 5 13 18 8 60 -25
64 4 11 75 -23 30 -52 76 -65 103 -14 26 -32 51 -40 54 -8 3 -21 20 -29 39 -7
18 -32 45 -54 60 -23 15 -44 37 -47 50 -3 13 -13 29 -21 36 -14 11 -15 9 -10
-17z"/>
<path d="M2196 6865 c-18 -14 -16 -45 2 -45 5 0 15 -13 22 -30 7 -16 28 -40
48 -52 31 -19 33 -23 18 -34 -15 -11 -14 -15 14 -42 16 -17 30 -36 30 -42 0
-6 4 -8 10 -5 5 3 16 -9 23 -28 13 -31 69 -87 87 -87 4 0 10 -12 13 -27 6 -26
64 -104 137 -181 17 -19 43 -58 57 -88 21 -46 28 -52 43 -44 10 6 26 7 35 4
21 -8 76 43 68 63 -3 8 -12 12 -20 9 -10 -4 -13 -1 -8 13 4 12 -3 29 -19 48
-26 28 -26 28 -32 6 -3 -13 -10 -23 -14 -23 -17 0 -49 52 -55 89 -4 27 -17 47
-46 72 -22 19 -39 42 -39 55 0 14 -12 27 -35 40 -21 11 -51 43 -76 82 -22 36
-49 67 -60 69 -10 3 -19 13 -19 22 0 9 -20 36 -44 60 -35 35 -50 43 -70 39
-22 -4 -26 -2 -26 18 0 26 -9 54 -19 54 -3 0 -14 -7 -25 -15z"/>
<path d="M6301 6749 c-34 -34 -61 -70 -61 -80 0 -18 -57 -69 -77 -69 -12 0
-72 -54 -87 -78 -38 -63 -53 -81 -74 -94 -13 -8 -34 -32 -45 -53 -17 -29 -31
-41 -56 -46 -41 -8 -53 -20 -54 -53 -1 -17 -8 -26 -19 -26 -28 0 -48 -11 -48
-27 0 -8 6 -13 13 -10 52 21 50 22 45 -7 -7 -34 21 -53 53 -35 12 6 31 8 42 5
30 -8 77 39 77 76 0 23 -4 28 -25 28 -14 0 -25 5 -25 11 0 7 11 9 29 6 26 -5
32 -2 50 29 12 19 21 42 21 49 0 8 11 22 25 31 13 9 37 37 53 63 16 26 37 55
47 64 16 16 22 34 24 64 1 7 11 12 24 10 18 -2 23 4 25 30 2 23 13 40 37 59
48 37 90 93 77 106 -7 7 -30 -10 -71 -53z"/>
<path d="M4715 6738 c-11 -21 -22 -38 -27 -38 -18 0 -51 -91 -45 -129 4 -31 1
-41 -17 -54 -19 -15 -21 -25 -20 -116 0 -55 3 -104 7 -107 4 -4 14 -1 22 6 13
11 18 10 29 -5 7 -10 19 -16 27 -13 8 3 20 -2 28 -9 18 -19 25 -10 17 22 -5
18 -12 25 -21 21 -17 -6 -19 2 -6 22 7 12 14 11 39 -2 36 -18 105 -31 126 -23
24 9 8 34 -24 41 -27 5 -39 14 -80 62 -48 56 -50 65 -28 108 l20 41 -26 -24
c-14 -14 -26 -19 -26 -13 0 6 5 14 10 17 16 10 12 25 -7 25 -13 0 -8 10 20 36
23 22 36 42 33 51 -3 8 -6 25 -6 38 0 18 -4 22 -20 18 -22 -6 -26 7 -9 24 6 6
9 17 6 25 -2 8 -12 -2 -22 -24z"/>
<path d="M5598 6712 c-3 -11 -2 -26 3 -33 12 -19 11 -59 -1 -59 -5 0 -10 9
-10 20 0 20 0 20 -20 0 -11 -11 -17 -26 -14 -35 4 -8 1 -15 -5 -15 -7 0 -9
-15 -7 -42 3 -24 5 -46 5 -50 2 -19 20 -5 35 27 9 19 23 35 31 35 8 0 15 4 15
10 0 5 11 19 24 32 29 28 43 78 22 78 -8 0 -18 10 -22 22 -6 20 -7 20 -17 3
-9 -17 -10 -17 -22 5 -12 22 -12 22 -17 2z"/>
<path d="M2690 6650 c0 -16 -7 -33 -15 -37 -12 -7 -9 -14 15 -40 17 -18 27
-38 25 -46 -3 -7 5 -19 19 -27 14 -7 23 -16 21 -21 -3 -4 3 -5 13 -2 12 3 23
-4 32 -22 7 -14 19 -24 26 -21 14 6 26 -18 18 -38 -5 -14 21 -30 36 -21 15 9
-3 57 -25 65 -17 7 -21 14 -18 33 3 14 0 28 -6 31 -6 4 -12 1 -12 -6 -1 -7 -4
1 -8 17 -4 17 -12 29 -18 28 -6 -1 -14 10 -18 26 -3 16 -19 42 -35 57 -16 16
-30 35 -30 42 0 27 -20 10 -20 -18z"/>
<path d="M6603 6651 c-16 -14 -19 -21 -10 -30 8 -8 7 -11 -6 -11 -9 0 -17 5
-17 10 0 6 -5 10 -11 10 -6 0 -9 -7 -6 -15 4 -8 2 -17 -2 -20 -5 -2 -12 -21
-15 -41 -6 -28 -14 -38 -40 -49 -18 -8 -38 -26 -45 -42 -8 -15 -16 -23 -18
-16 -6 17 -50 -28 -58 -59 -5 -18 -15 -28 -35 -31 -32 -7 -44 -30 -30 -57 8
-15 5 -24 -12 -40 -21 -20 -23 -20 -26 -3 -8 48 -13 48 -62 -2 -27 -28 -79
-79 -115 -115 -36 -36 -81 -89 -101 -117 -40 -60 -56 -71 -116 -79 -34 -5 -46
-12 -56 -32 -10 -22 -9 -27 11 -41 12 -9 26 -16 32 -16 10 0 26 -30 45 -81 16
-44 49 -60 88 -43 29 12 29 14 26 81 -2 61 0 69 19 80 30 15 38 30 25 45 -8
10 -3 16 18 24 16 6 23 13 17 16 -23 8 -14 32 18 48 17 9 37 31 45 51 14 32
32 50 20 19 -9 -24 3 -18 64 35 32 28 65 66 74 85 9 19 23 35 31 35 9 0 12 6
8 16 -4 10 1 17 15 21 21 5 39 33 22 33 -22 0 -7 16 30 34 27 13 36 22 28 27
-9 6 -7 10 7 15 11 4 38 27 61 49 22 23 47 45 55 48 10 4 11 6 1 6 -7 1 -11 5
-7 11 3 5 13 6 22 3 12 -5 15 -2 10 9 -4 12 -1 14 13 11 10 -3 21 0 24 6 4 6
0 11 -9 11 -9 0 -15 6 -12 13 2 6 18 12 35 12 18 0 32 3 32 7 0 5 -4 8 -9 8
-5 0 -7 8 -5 18 5 16 -28 62 -44 62 -4 -1 -17 -9 -29 -19z"/>
<path d="M3753 6585 c0 -11 8 -28 16 -39 15 -17 15 -18 -6 -12 -18 6 -22 4
-17 -7 3 -8 18 -17 34 -21 22 -4 28 -10 23 -22 -3 -9 0 -20 8 -25 12 -7 12 -9
0 -9 -8 0 -20 8 -27 18 -12 15 -12 14 -7 -8 3 -14 12 -33 19 -44 7 -10 10 -24
8 -31 -3 -7 0 -16 6 -20 9 -6 9 -10 -1 -16 -11 -7 -10 -9 4 -9 19 0 23 -15 6
-26 -6 -3 -9 -20 -6 -38 6 -40 -5 -59 -48 -86 -36 -22 -45 -40 -21 -40 8 0 17
-4 20 -9 3 -4 -5 -6 -18 -4 -28 6 -56 -20 -56 -52 0 -13 -4 -27 -10 -30 -5 -3
-10 -13 -10 -21 0 -12 4 -12 20 -4 15 8 18 8 14 -3 -6 -18 26 -31 40 -17 5 5
17 10 26 10 8 0 22 9 30 20 17 24 28 25 51 4 12 -11 25 -14 36 -9 10 5 26 7
36 6 20 -3 22 9 5 29 -7 8 -1 4 14 -9 15 -13 25 -28 22 -33 -6 -9 66 -3 109 9
19 5 24 -13 5 -20 -7 -3 1 -6 17 -6 21 -1 26 -4 16 -10 -7 -5 -22 -6 -32 -4
-11 3 -19 0 -19 -7 0 -7 6 -10 14 -7 7 3 17 2 22 -3 5 -5 26 -5 48 0 21 5 45
6 54 3 10 -4 13 -2 8 6 -8 13 -86 47 -99 43 -5 -1 -6 2 -2 8 3 5 -1 10 -9 10
-23 0 -86 32 -81 41 3 4 19 2 35 -4 23 -9 35 -9 50 1 11 6 25 12 31 12 17 0
70 41 64 50 -3 4 2 10 10 14 21 8 19 26 -2 27 -15 0 -15 2 2 8 11 5 28 5 37 0
40 -21 83 2 55 30 -18 18 -29 13 -22 -10 6 -19 5 -20 -15 -9 -13 7 -32 13 -44
15 -11 1 -29 6 -38 10 -11 4 -18 3 -18 -4 0 -6 10 -12 23 -12 16 -1 18 -2 5
-6 -10 -2 -18 -9 -18 -15 0 -15 -15 0 -15 15 0 8 -16 11 -44 9 -30 -2 -49 3
-62 14 -28 26 -34 10 -8 -20 13 -15 29 -24 36 -22 7 3 13 1 13 -4 0 -6 12 -10
26 -10 32 0 61 -25 39 -34 -8 -3 -15 0 -15 6 0 9 -3 9 -11 1 -9 -9 -31 -1 -88
28 -79 40 -100 45 -130 30 -9 -5 -22 -6 -29 -2 -15 9 -20 45 -7 51 6 3 11 -5
13 -17 4 -27 10 -28 33 -7 10 9 35 16 56 16 46 0 63 12 58 41 -5 25 -43 60
-56 51 -18 -11 -9 -34 14 -34 l22 -1 -24 -13 c-13 -7 -32 -11 -42 -9 -22 6
-37 69 -20 86 6 6 11 16 11 22 0 5 -4 4 -9 -4 -15 -23 -45 13 -37 43 5 21 3
24 -17 20 -12 -2 -16 -2 -9 2 6 3 11 18 11 32 -1 17 -3 21 -6 10 -9 -37 -23
-16 -23 35 0 69 -8 78 -57 75 -34 -2 -41 -7 -40 -23z"/>
<path d="M1814 6453 c-44 -48 -44 -69 4 -89 100 -43 142 -67 142 -81 0 -8 44
-58 98 -111 111 -110 161 -152 179 -152 7 0 20 -11 29 -25 9 -14 30 -27 48
-31 22 -4 39 -16 50 -35 18 -31 39 -34 44 -7 3 18 -75 108 -93 108 -7 0 -35
21 -61 46 -27 25 -59 50 -71 55 -13 5 -23 17 -23 28 0 29 -143 143 -184 146
-18 1 -21 8 -21 42 -1 22 -9 53 -19 69 -21 33 -65 74 -79 74 -5 0 -25 -17 -43
-37z"/>
<path d="M6906 6440 c-13 -22 -15 -34 -7 -44 12 -15 -13 -58 -32 -54 -10 3
-72 -35 -87 -52 -3 -3 -49 -37 -103 -75 -56 -39 -103 -81 -112 -97 -14 -29
-13 -31 23 -70 20 -22 36 -46 34 -54 -2 -8 1 -14 6 -14 17 0 20 12 11 43 -13
46 -4 63 59 109 31 23 84 65 118 93 57 47 75 59 163 111 43 25 44 50 5 101
-31 41 -54 42 -78 3z"/>
<path d="M1379 6378 c-31 -43 -49 -77 -49 -94 0 -8 29 -22 75 -35 42 -12 86
-32 99 -44 30 -28 77 -26 92 4 7 13 17 28 23 34 23 23 10 27 -20 6 -26 -18
-33 -19 -40 -8 -5 8 -9 18 -9 22 0 5 -19 7 -42 5 -40 -3 -43 -1 -41 20 2 13
-4 25 -12 28 -8 4 -15 13 -15 21 0 13 3 13 15 3 20 -16 18 -3 -4 35 -24 41
-45 42 -72 3z"/>
<path d="M2887 6365 c-11 -8 -25 -11 -33 -8 -10 4 -12 0 -8 -12 6 -14 3 -16
-14 -11 -17 6 -21 4 -16 -8 4 -11 19 -16 45 -16 21 0 39 -4 39 -10 0 -5 -9
-10 -20 -10 -31 0 -24 -19 13 -35 18 -7 41 -23 51 -34 19 -21 19 -21 -2 -21
-12 0 -22 5 -22 10 0 6 -5 10 -10 10 -11 0 9 -44 47 -101 l24 -37 32 16 c18 8
36 22 41 30 7 12 10 12 17 1 7 -12 9 -11 9 1 0 8 -5 22 -10 30 -9 13 -10 13
-10 0 -1 -12 -3 -11 -11 3 -5 9 -7 22 -4 28 4 6 -2 13 -14 16 -12 3 -21 13
-21 24 0 22 -8 23 -44 9 -21 -7 -26 -6 -26 5 0 8 7 15 15 15 10 0 15 10 15 28
-1 29 -20 62 -38 62 -6 0 -15 6 -19 14 -7 12 -11 12 -26 1z"/>
<path d="M5313 6223 c-7 -3 -13 -19 -13 -37 0 -31 -19 -56 -54 -69 -13 -5 -17
-16 -15 -44 3 -43 -8 -82 -22 -84 -16 -2 -23 -5 -63 -22 -22 -10 -44 -15 -50
-13 -6 2 -4 5 5 5 22 1 20 27 -3 27 -10 0 -18 -6 -18 -13 0 -7 -4 -13 -10 -13
-5 0 -10 -8 -10 -17 -1 -16 -3 -16 -18 3 -11 13 -29 20 -52 20 -19 0 -47 3
-62 7 -23 6 -27 4 -25 -13 1 -11 6 -20 11 -20 5 0 6 -3 3 -6 -4 -4 -22 5 -42
20 -39 30 -67 26 -39 -5 9 -10 20 -16 24 -14 4 3 13 -2 20 -10 7 -8 20 -15 29
-16 9 0 0 -5 -19 -11 l-34 -10 24 -19 c14 -10 19 -19 12 -19 -7 0 -10 -4 -7
-10 4 -6 14 -5 27 3 16 9 22 9 25 0 3 -7 9 -13 14 -13 6 0 7 5 3 11 -4 7 -1
10 7 7 8 -3 13 -10 12 -16 -2 -6 12 -9 33 -8 39 4 52 -8 34 -29 -9 -11 -9 -15
-1 -15 6 0 11 -7 11 -15 0 -8 6 -15 14 -15 7 0 19 -7 26 -15 7 -8 20 -15 29
-15 9 0 12 3 6 8 -6 4 -23 25 -39 46 l-29 39 31 -19 c18 -10 35 -26 38 -36 3
-10 10 -18 16 -18 5 0 8 -7 4 -15 -7 -18 1 -19 44 -3 30 10 31 12 14 19 -20 7
-22 6 41 25 21 7 30 16 30 31 0 12 5 26 9 30 5 4 6 2 2 -4 -4 -8 -1 -13 7 -13
30 0 56 63 27 66 -8 0 -25 2 -38 2 -19 2 -21 4 -10 16 8 8 19 11 28 7 19 -10
62 1 60 14 -1 6 -5 15 -10 20 -9 11 -7 66 3 81 9 15 47 118 47 128 0 5 -16 6
-35 3 -19 -3 -35 -4 -35 -3 0 18 24 65 31 60 5 -3 9 0 9 6 0 7 -6 10 -14 7 -7
-3 -17 -2 -22 3 -5 4 -15 5 -21 3z"/>
<path d="M7201 6209 c-26 -10 -47 -35 -71 -83 -9 -19 -25 -33 -40 -36 -37 -7
-110 -57 -157 -108 -27 -29 -47 -43 -57 -39 -19 8 -117 -57 -133 -88 -9 -15
-32 -29 -70 -41 -32 -10 -71 -30 -86 -46 -15 -15 -33 -25 -40 -22 -7 2 -24 -7
-37 -21 -13 -14 -33 -25 -44 -25 -12 0 -43 -8 -70 -18 l-48 -19 30 -21 c16
-12 35 -22 41 -22 6 0 11 -4 11 -10 0 -9 -20 -14 -45 -11 -5 1 5 -12 24 -28
38 -33 76 -30 76 7 1 26 23 52 46 52 9 0 24 7 33 15 18 18 33 19 39 3 5 -17
37 8 37 29 0 26 89 93 124 93 5 0 27 16 47 36 38 37 60 52 116 79 17 8 34 19
37 24 8 13 -4 42 -15 35 -5 -3 -9 -2 -9 3 0 4 20 9 44 10 51 2 106 27 106 48
0 15 43 39 90 49 14 3 32 10 40 16 13 9 13 11 0 20 -11 7 -3 9 28 8 71 -2 79
31 22 91 -30 34 -33 34 -69 20z"/>
<path d="M3132 6096 c-6 -13 -8 -33 -5 -45 6 -24 -14 -29 -23 -6 -4 8 -12 15
-20 15 -17 0 -18 12 -2 28 6 6 9 14 6 18 -4 3 -16 -4 -27 -15 -12 -12 -30 -21
-41 -21 -11 0 -20 -4 -20 -10 0 -5 4 -10 9 -10 15 0 22 -32 10 -46 -6 -8 -8
-26 -4 -43 4 -17 6 -34 5 -37 -1 -4 4 -11 12 -15 9 -6 9 -9 1 -9 -6 0 -11 -13
-11 -30 1 -16 5 -30 11 -30 5 0 4 -6 -2 -14 -15 -18 -3 -46 20 -46 10 0 22 -7
27 -16 9 -16 23 -16 65 1 12 5 17 2 17 -9 0 -15 -18 -20 -58 -19 -9 1 -10 -2
-2 -13 12 -14 16 -13 103 25 27 12 58 21 70 21 26 0 87 22 87 31 0 4 -7 9 -15
13 -9 3 -12 12 -8 22 5 14 2 16 -15 12 -12 -4 -22 -2 -22 4 0 5 9 12 20 15 11
3 17 9 15 14 -10 15 38 54 62 51 13 -2 23 0 23 5 0 13 -51 33 -84 33 l-31 1
40 21 c47 24 50 26 43 33 -7 8 -108 -27 -108 -37 0 -4 5 -8 12 -8 6 0 4 -8 -6
-19 -10 -11 -19 -28 -20 -38 -2 -12 -11 -18 -27 -18 -17 0 -23 5 -21 18 4 22
-27 23 -43 1 -9 -13 -16 -14 -31 -6 -17 10 -17 11 -1 12 9 0 17 6 17 14 0 10
12 13 50 9 59 -6 69 13 13 23 -21 4 -51 16 -68 26 l-30 19 34 -3 c25 -2 37 2
48 19 14 21 13 24 -16 40 -17 10 -31 24 -31 31 0 20 -16 14 -28 -12z"/>
<path d="M1875 6021 c-3 -6 -22 -11 -41 -11 -19 0 -34 -5 -34 -11 0 -6 -8 -8
-17 -5 -20 7 13 -23 77 -69 23 -16 56 -40 72 -52 17 -13 34 -20 39 -18 10 7
80 -40 72 -48 -3 -3 11 -13 31 -21 20 -8 35 -19 34 -23 -5 -18 28 -53 49 -53
25 0 31 -15 11 -23 -7 -3 -3 -6 9 -6 12 -1 25 -6 28 -11 5 -8 11 -7 21 1 11 9
14 8 14 -5 0 -9 8 -16 18 -16 22 0 62 -32 62 -49 0 -6 -12 -11 -26 -11 -14 0
-23 -4 -19 -10 3 -5 12 -7 20 -3 8 3 27 2 41 -1 22 -6 25 -11 19 -33 -4 -19
-1 -29 15 -40 11 -8 20 -22 20 -32 0 -9 7 -39 16 -66 13 -37 14 -52 5 -67 -9
-14 -8 -18 3 -18 8 0 18 -5 22 -11 4 -8 0 -9 -15 -4 -25 8 -28 -10 -5 -40 15
-20 15 -20 30 -1 17 24 17 28 0 71 -14 33 -14 35 4 35 10 0 21 -6 24 -12 3 -7
4 1 2 17 l-4 30 29 -34 c16 -19 32 -32 35 -28 4 4 2 7 -6 7 -10 0 -10 3 0 15
10 12 10 15 -3 15 -12 0 -26 27 -27 53 0 16 17 6 30 -18 16 -29 40 -32 63 -7
16 17 14 21 -22 56 -27 26 -47 38 -70 38 -39 1 -44 -4 -43 -44 1 -29 -1 -31
-12 -15 -8 9 -20 15 -28 12 -12 -5 -14 0 -10 20 3 19 7 23 13 14 6 -11 9 -10
15 4 3 9 12 17 19 17 18 0 36 25 29 41 -3 8 -21 27 -41 43 -29 24 -36 27 -45
15 -7 -10 -8 -9 -3 7 4 16 -4 30 -35 57 -22 20 -52 39 -67 43 -112 26 -128 32
-127 48 1 9 -4 16 -12 16 -7 0 -17 15 -22 33 -8 30 -9 30 -16 10 -11 -34 -26
-28 -16 7 9 33 3 40 -36 45 -24 2 -74 50 -74 71 0 21 -22 33 -42 23 -14 -8
-20 -6 -24 8 -14 45 -36 64 -49 44z"/>
<path d="M4500 5973 c0 -13 -4 -23 -10 -23 -5 0 -10 -10 -10 -23 0 -27 -25
-65 -36 -54 -4 4 -3 12 3 18 11 11 6 59 -6 59 -4 0 -13 -10 -20 -22 -26 -47
-122 -102 -107 -61 5 12 1 14 -15 10 -12 -3 -32 -2 -45 3 -13 5 -31 7 -39 4
-18 -7 -20 -31 -2 -37 6 -2 0 -4 -15 -4 -24 0 -27 3 -22 23 7 28 -7 31 -32 7
-16 -17 -16 -18 -1 -21 24 -5 21 -22 -3 -22 -11 0 -34 -8 -52 -18 -18 -10 -39
-17 -45 -15 -7 3 -13 0 -13 -6 0 -16 32 -13 58 5 35 24 36 12 3 -29 -24 -31
-31 -35 -41 -22 -11 13 -14 13 -27 0 -19 -20 -34 -19 -26 0 5 15 -21 44 -41
45 -6 0 -2 -6 8 -13 17 -12 13 -14 -32 -16 -28 -1 -53 3 -57 9 -11 18 -35 11
-29 -7 4 -14 2 -13 -7 2 -7 11 -17 23 -23 28 -8 5 -6 10 4 18 12 8 11 9 -7 4
-12 -3 -24 -1 -28 5 -14 22 -27 9 -22 -20 9 -42 36 -80 58 -80 11 0 19 -4 19
-10 0 -12 -30 -13 -46 -2 -6 4 -14 14 -18 22 -4 8 -13 26 -21 40 l-15 25 0
-37 c0 -23 -7 -45 -18 -56 -22 -22 -74 -42 -110 -42 -19 0 -23 -4 -17 -17 4
-10 8 -36 9 -59 1 -33 -2 -40 -15 -37 -21 6 -43 -22 -36 -47 6 -24 -17 -45
-40 -35 -54 23 -83 10 -83 -36 l0 -29 33 20 c42 26 47 25 47 -5 0 -24 -2 -25
-55 -24 -30 1 -55 6 -55 10 0 5 -12 4 -26 -1 -33 -13 -44 -12 -21 1 9 5 17 18
17 27 0 13 -2 14 -9 4 -7 -12 -12 -12 -30 0 -19 11 -23 11 -32 -4 -6 -10 -15
-18 -20 -18 -6 0 -3 7 6 16 9 9 14 19 11 21 -7 8 -41 -29 -54 -60 -15 -34 -15
-37 -1 -37 6 0 27 -7 46 -17 30 -14 36 -14 45 -2 8 11 9 11 5 -2 -7 -22 20
-59 42 -59 10 0 30 9 44 20 31 24 33 24 41 4 4 -9 0 -25 -9 -34 -9 -9 -13 -24
-9 -33 5 -15 8 -15 27 -2 12 8 33 15 47 15 18 0 21 3 11 9 -16 10 1 23 21 16
20 -8 73 39 63 55 -5 9 -4 11 4 6 6 -4 9 -16 6 -27 -8 -23 9 -24 80 -4 29 8
40 14 26 14 -18 1 -22 5 -18 22 4 15 -1 22 -19 29 -29 11 -23 44 7 35 11 -4
19 -2 19 3 0 6 9 8 20 5 11 -3 20 -10 20 -15 0 -6 23 -9 59 -6 47 3 58 1 54
-10 -3 -8 13 -1 35 15 23 15 41 33 42 40 0 7 9 9 23 5 35 -8 51 -42 21 -42
-10 0 -14 5 -10 15 5 13 2 14 -16 4 l-22 -12 24 -9 c31 -12 83 8 59 23 -10 6
-11 9 -1 9 7 0 10 5 7 10 -3 6 -2 10 4 10 6 0 26 14 46 31 19 17 35 26 35 20
0 -6 -3 -11 -7 -11 -5 0 -13 -11 -20 -25 -6 -14 -7 -25 -2 -25 5 0 12 7 15 15
4 8 14 15 24 15 11 0 22 5 25 10 3 6 15 10 27 10 17 0 18 3 8 15 -7 8 -17 12
-22 9 -6 -4 -7 2 -3 16 7 22 6 22 -15 7 -17 -12 -29 -13 -51 -5 -16 5 -29 14
-29 18 0 11 -56 24 -98 23 -18 0 -30 2 -27 6 10 10 145 9 145 -1 0 -11 70 0
85 13 5 5 20 9 35 9 34 0 46 10 47 40 2 27 59 84 93 93 15 4 22 -1 26 -19 3
-13 9 -24 13 -24 3 0 7 -24 8 -52 1 -37 7 -56 20 -66 11 -8 14 -15 7 -20 -5
-4 -11 -22 -12 -40 -2 -30 -1 -32 18 -22 17 9 19 14 10 25 -9 11 -2 19 33 39
44 26 102 35 109 16 2 -6 14 -6 33 -1 l30 9 -25 9 -25 10 25 8 c15 5 25 4 28
-4 2 -6 10 -11 18 -11 9 0 13 4 9 9 -3 6 3 14 12 20 17 10 17 10 -2 11 -17 0
-18 2 -5 10 13 9 12 12 -4 22 -29 16 -106 98 -106 111 0 7 11 -1 25 -17 14
-16 25 -26 25 -21 0 4 8 -3 18 -15 11 -13 24 -20 30 -16 16 10 15 26 -2 26
-21 0 -66 47 -60 63 3 9 -8 26 -28 42 -26 22 -27 24 -6 11 38 -22 41 -21 36
17 -3 27 0 33 12 30 24 -7 50 -47 39 -64 -7 -12 -9 -11 -9 2 0 9 -7 20 -15 23
-12 4 -15 0 -12 -18 4 -35 26 -56 57 -56 36 0 90 -28 90 -47 0 -13 2 -13 16
-2 10 8 12 15 5 17 -6 2 -11 10 -11 17 0 7 -7 15 -15 19 -32 12 -14 25 29 21
44 -5 76 11 76 36 0 15 -29 22 -43 11 -7 -6 -21 -6 -34 -1 -33 12 -28 23 7 16
36 -8 39 5 6 26 -21 14 -25 14 -39 -1 -15 -15 -19 -14 -42 8 l-25 23 0 -24 c0
-23 -1 -22 -21 8 -12 18 -25 31 -30 28 -4 -3 -14 3 -21 15 -15 24 -28 26 -28
4 0 -8 -4 -12 -10 -9 -5 3 -10 -3 -10 -14 0 -22 1 -22 -49 6 -2 1 3 13 12 26
18 28 10 47 -21 44 -16 -1 -22 -8 -22 -24z"/>
<path d="M6356 5948 c-5 -16 -12 -28 -17 -28 -15 0 -10 -22 9 -36 14 -11 15
-13 2 -14 -22 0 -39 20 -33 38 4 8 -23 -14 -59 -49 -36 -35 -69 -75 -73 -88
-7 -24 -8 -24 -21 -6 -8 10 -15 16 -15 12 -1 -4 -2 -12 -3 -17 -2 -18 -29 -30
-43 -18 -9 7 -13 7 -13 0 0 -5 -12 -13 -26 -16 -24 -6 -25 -9 -19 -49 9 -52 8
-51 36 -35 37 21 59 51 52 73 -5 17 -4 18 10 7 9 -8 18 -9 21 -3 4 5 18 8 31
5 29 -5 78 23 68 39 -3 5 -1 7 4 4 12 -8 36 17 26 26 -6 7 14 17 42 21 23 3
37 28 22 38 -8 5 -3 8 11 8 15 0 21 -4 16 -12 -4 -6 4 -3 18 8 21 16 24 22 15
41 -5 13 -18 25 -28 28 -10 3 -19 16 -22 28 -3 20 -4 20 -11 -5z"/>
<path d="M1485 5896 c27 -24 66 -49 87 -56 23 -6 43 -20 49 -33 15 -33 107
-97 140 -97 15 0 31 -5 35 -12 5 -7 2 -9 -7 -4 -8 4 -3 -2 11 -13 28 -24 67
-37 78 -27 4 4 -4 16 -18 26 l-25 20 27 0 c21 0 30 -8 45 -37 26 -54 62 -64
102 -30 19 16 38 24 48 20 11 -4 14 -2 11 8 -2 8 -18 16 -34 19 -16 3 -49 16
-74 28 -25 12 -52 22 -61 22 -9 0 -19 6 -22 13 -3 8 -59 32 -124 56 -89 31
-128 50 -155 76 -33 32 -109 65 -148 65 -8 -1 7 -20 35 -44z"/>
<path d="M3462 5801 c-28 -15 -49 -31 -45 -34 3 -4 -8 -10 -25 -13 -21 -4 -34
-14 -41 -33 -5 -14 -10 -21 -10 -15 -1 6 -12 9 -26 6 -21 -4 -24 -8 -18 -30 4
-17 2 -23 -6 -18 -6 4 -15 -3 -21 -18 -5 -15 -13 -26 -17 -25 -21 3 -33 -2
-33 -16 0 -22 -37 -38 -44 -19 -3 8 -10 13 -15 9 -6 -3 -7 -13 -4 -22 4 -11 3
-14 -6 -9 -7 5 -28 -7 -52 -29 -22 -20 -47 -34 -54 -31 -7 2 -19 -1 -25 -9 -6
-7 -26 -16 -46 -19 -19 -4 -32 -11 -29 -17 11 -16 66 -10 97 12 40 29 46 18
14 -24 -33 -43 -79 -65 -101 -47 -17 14 -39 4 -31 -15 4 -13 -25 -45 -54 -59
-9 -5 -8 -2 3 7 18 15 21 58 7 92 -7 17 -9 16 -10 -10 -2 -22 -4 -24 -7 -10
-3 11 -9 25 -15 30 -6 7 -7 5 -3 -5 7 -19 -24 -61 -31 -43 -4 8 -11 6 -23 -6
-10 -10 -24 -20 -32 -23 -27 -9 4 -28 47 -28 37 0 44 -3 42 -17 -2 -12 5 -19
22 -23 29 -6 40 -40 13 -40 -10 0 -32 8 -49 19 l-30 18 -17 -37 c-9 -21 -13
-47 -10 -59 5 -20 6 -20 19 -4 12 17 13 17 12 -2 -1 -11 15 -44 36 -74 33 -49
35 -55 21 -71 -17 -19 -20 -46 -5 -55 6 -3 10 1 10 9 0 9 8 16 18 17 10 0 12
3 5 6 -7 2 -13 9 -13 15 0 6 7 7 16 4 8 -3 13 -2 9 3 -3 5 1 12 7 15 10 5 10
7 1 12 -9 4 -10 11 -3 25 13 22 32 26 24 4 -10 -24 5 -17 33 15 13 17 30 30
35 30 6 0 4 -8 -5 -18 -22 -24 -23 -53 -2 -46 9 4 15 11 14 18 -3 19 12 46 23
40 5 -3 4 -11 -3 -20 -15 -19 -2 -18 17 1 19 19 33 19 40 0 4 -10 12 -12 22
-7 24 12 47 9 47 -5 0 -28 17 -23 54 16 35 36 37 41 18 41 -12 0 -31 -7 -41
-15 -34 -26 -41 -16 -10 14 16 16 31 25 34 21 3 -5 12 -5 20 0 10 7 11 10 3
10 -7 0 -13 7 -13 16 0 18 -35 11 -57 -12 -15 -14 -47 -8 -37 7 3 5 18 16 35
24 37 20 40 50 4 41 -28 -7 -32 5 -9 28 8 9 16 25 17 36 1 12 8 20 19 20 24 0
32 17 11 23 -13 3 -14 5 -3 6 9 0 21 15 27 31 6 17 18 30 27 30 9 0 16 5 16
10 0 6 8 10 18 10 19 0 72 55 72 74 0 6 -12 -1 -25 -17 -29 -33 -66 -49 -86
-36 -12 8 -12 10 1 18 8 5 18 8 22 5 14 -9 47 16 50 38 2 18 10 23 34 24 37 1
54 10 54 29 0 8 10 19 22 26 18 10 20 9 15 -5 -4 -9 -3 -16 2 -16 5 0 12 12
16 28 3 15 21 43 39 62 42 44 52 70 26 63 -15 -4 -18 -1 -13 15 4 16 -1 21
-24 25 l-28 4 28 2 c17 0 27 7 27 16 0 8 -1 15 -2 14 -2 0 -27 -13 -56 -28z"/>
<path d="M6993 5774 c-18 -14 -33 -32 -33 -39 0 -19 -46 -62 -93 -86 -21 -11
-40 -26 -44 -34 -3 -10 -19 -15 -42 -15 -46 0 -84 -24 -61 -40 13 -8 13 -10
-2 -10 -10 0 -18 4 -18 10 0 11 -15 7 -107 -36 -41 -19 -73 -39 -73 -48 0 -7
-7 -16 -15 -20 -8 -3 -15 -11 -15 -17 0 -7 11 -3 23 10 20 18 29 20 50 12 29
-11 107 10 128 35 6 8 22 14 34 14 27 0 81 42 90 69 9 28 79 51 175 56 25 2
62 10 83 18 30 13 37 21 37 44 0 16 -5 34 -11 40 -6 6 -17 22 -23 35 -16 32
-45 33 -83 2z"/>
<path d="M5976 5671 c-10 -11 -23 -18 -30 -15 -7 3 -31 -19 -54 -47 l-42 -52
21 -23 c12 -12 18 -27 14 -33 -4 -7 5 -11 24 -11 32 0 44 20 14 21 -14 0 -12
3 5 10 13 5 20 13 17 19 -4 6 5 10 19 10 14 0 36 5 50 11 l25 12 -21 17 c-16
13 -21 27 -20 58 1 23 0 42 -2 42 -1 0 -11 -9 -20 -19z"/>
<path d="M7132 5654 c-12 -6 -28 -19 -35 -28 -7 -10 -28 -19 -47 -21 -37 -4
-105 -27 -116 -38 -4 -4 -15 -7 -24 -7 -8 0 -31 -13 -50 -30 -37 -31 -57 -39
-44 -17 5 6 -8 0 -27 -14 -18 -14 -51 -29 -72 -33 -21 -4 -35 -11 -32 -15 2
-5 -16 -14 -42 -20 -34 -9 -43 -15 -33 -21 8 -5 12 -10 10 -12 -28 -18 -50
-27 -50 -20 0 9 -46 8 -85 -2 -14 -4 -25 -12 -25 -19 0 -17 -78 -38 -83 -23
-5 15 -136 8 -160 -9 -10 -7 -28 -10 -40 -7 -20 5 -20 3 6 -21 15 -14 27 -31
27 -37 0 -7 14 -43 30 -81 17 -38 28 -74 24 -80 -4 -7 1 -9 12 -7 11 2 17 11
15 19 -2 8 -6 25 -8 39 l-4 25 25 -27 c14 -16 32 -28 41 -28 12 0 15 -6 9 -22
-4 -13 -12 -26 -18 -30 -6 -4 -7 -8 -3 -8 5 0 1 -7 -8 -17 -12 -11 -15 -25
-11 -46 3 -16 6 -40 6 -54 0 -13 7 -26 18 -30 9 -4 20 -11 23 -16 4 -5 19 -7
34 -3 21 5 25 10 16 19 -13 13 -15 31 -3 23 10 -6 52 30 52 45 0 22 -29 76
-54 98 -32 30 -32 32 -3 63 12 13 35 43 52 67 16 24 41 47 55 53 14 5 35 21
47 35 16 18 29 24 50 20 15 -2 22 -2 16 0 -23 8 -14 26 9 19 26 -6 97 23 98
40 0 13 32 24 68 24 12 0 22 5 22 10 0 6 9 10 19 10 11 0 23 5 26 10 3 6 15
10 25 10 10 0 32 11 48 25 17 14 37 25 46 25 18 0 22 25 6 35 -5 3 -10 11 -10
17 0 6 9 3 20 -7 17 -15 20 -16 20 -3 0 12 10 15 47 12 25 -1 62 4 81 12 19 8
48 14 64 14 25 0 28 2 18 19 -5 11 -23 28 -40 37 -16 10 -31 23 -32 29 -2 8
-9 8 -26 -1z"/>
<path d="M921 5586 c-7 -8 -15 -30 -18 -50 -4 -29 -2 -37 13 -43 11 -3 22 -10
25 -15 3 -4 20 -3 39 3 28 10 35 10 45 -4 7 -10 16 -17 20 -17 5 0 22 -10 39
-23 17 -12 85 -47 151 -76 137 -62 130 -58 140 -91 l7 -25 -23 21 c-25 22 -48
29 -133 43 -29 5 -55 16 -65 27 -18 23 -68 47 -81 39 -5 -3 -20 6 -34 20 -28
28 -46 26 -46 -6 0 -11 -12 -38 -26 -60 -14 -23 -24 -42 -22 -44 2 -1 27 -5
56 -9 43 -6 52 -4 52 9 0 21 2 20 92 -25 44 -22 89 -40 99 -40 10 0 21 -5 24
-10 4 -6 29 -9 56 -7 30 2 49 -1 49 -7 0 -6 4 -4 10 4 8 12 13 12 43 -2 19 -9
50 -29 68 -45 47 -39 64 -47 165 -82 96 -33 323 -91 355 -91 16 0 19 7 19 40
0 27 -5 43 -15 46 -8 4 -15 15 -15 26 0 17 -5 19 -32 13 -18 -4 -44 -14 -56
-22 -22 -13 -25 -13 -39 6 -8 12 -23 21 -33 21 -26 0 -34 17 -14 28 9 5 19 24
20 41 4 31 4 31 -44 31 -42 0 -56 6 -106 45 -32 25 -68 45 -81 45 -12 0 -42
11 -66 23 -24 13 -62 30 -84 37 -22 7 -87 32 -145 55 -58 24 -125 49 -150 55
-24 7 -53 18 -64 26 -11 8 -30 14 -41 14 -12 0 -31 13 -43 29 -19 26 -72 61
-92 61 -4 0 -13 -6 -19 -14z"/>
<path d="M5350 5571 c0 -5 7 -11 15 -15 8 -3 15 -12 15 -21 0 -8 5 -15 10 -15
6 0 10 -6 10 -13 0 -7 5 -18 12 -25 15 -15 20 -64 6 -60 -6 2 -18 17 -27 34
-26 47 -50 78 -57 72 -3 -4 0 -17 7 -29 8 -16 8 -24 1 -27 -7 -2 -6 -12 3 -30
7 -15 19 -46 25 -69 6 -24 15 -43 20 -43 6 0 10 4 10 9 0 12 54 21 61 10 3 -5
15 -11 27 -14 19 -3 21 0 15 26 -3 18 -1 29 6 29 6 0 11 -4 11 -9 0 -9 61 -51
74 -51 3 0 6 5 6 11 0 5 -4 8 -9 5 -5 -3 -15 2 -22 11 -12 15 -12 16 4 10 10
-4 25 -7 33 -7 9 0 12 -5 8 -12 -6 -10 -4 -10 7 0 18 17 25 15 26 -8 1 -11 -2
-18 -7 -15 -15 9 -21 -14 -10 -36 6 -11 17 -18 25 -16 13 6 25 -39 25 -98 0
-19 7 -35 19 -42 17 -10 18 -9 15 10 -3 15 1 11 13 -10 9 -18 21 -33 27 -33 6
0 5 5 -2 12 -26 26 -10 28 23 2 37 -28 47 -51 18 -40 -16 6 -16 6 0 -12 9 -10
17 -23 17 -29 0 -6 7 -16 15 -23 12 -10 15 -10 15 3 0 9 -5 27 -11 41 -9 20
-9 28 3 40 14 13 17 12 27 -10 6 -14 11 -33 11 -43 0 -11 10 -21 23 -25 16 -4
19 -8 9 -14 -9 -6 -11 -18 -6 -37 4 -17 3 -26 -3 -22 -5 3 -10 -1 -10 -9 0
-11 7 -14 21 -10 12 3 27 6 35 6 11 0 11 4 -2 18 -10 10 -17 21 -17 25 0 7 35
1 50 -8 6 -3 10 -1 10 5 0 7 7 10 15 6 8 -3 15 -1 15 3 0 5 -7 11 -15 15 -8 3
-15 0 -15 -7 0 -8 -3 -9 -8 -1 -4 6 -21 19 -38 28 -33 20 -63 76 -39 76 7 0
16 -7 19 -16 4 -9 9 -14 12 -11 3 3 -3 18 -15 34 -25 34 -38 83 -22 83 16 0
13 62 -5 99 -8 17 -14 48 -12 69 3 35 1 37 -32 43 l-35 6 38 2 c42 1 48 13 15
29 l-23 11 23 0 c26 1 28 8 8 30 -8 9 -21 28 -29 43 -14 27 -14 27 -35 8 -26
-24 -31 -25 -47 -3 -8 11 -25 17 -50 16 -22 -1 -33 2 -25 7 19 11 -1 18 -37
13 -30 -5 -47 -23 -22 -23 6 0 8 -7 5 -15 -4 -10 2 -19 17 -25 20 -9 19 -9 -8
-7 -23 1 -29 6 -27 21 3 13 -1 17 -11 13 -9 -3 -17 2 -20 14 -3 11 -14 19 -26
19 -28 0 -27 -14 2 -28 21 -10 21 -11 -6 -11 -36 -1 -26 -18 22 -38 24 -11 31
-18 21 -21 -8 -3 -18 -10 -22 -16 -4 -7 -17 -2 -35 14 -19 17 -22 19 -10 4 30
-37 22 -53 -24 -49 -59 5 -70 25 -16 29 16 0 23 6 19 14 -2 8 -13 12 -22 9
-10 -3 -25 6 -36 21 -10 14 -24 30 -30 36 -5 6 -13 19 -16 28 -8 19 -48 44
-48 29z"/>
<path d="M7423 5550 c-125 -70 -139 -75 -373 -142 -19 -6 -43 -14 -52 -19 -10
-5 -25 -9 -33 -9 -9 0 -32 -7 -53 -17 -64 -28 -106 -43 -127 -43 -11 0 -33 -7
-49 -15 -15 -8 -39 -15 -52 -15 -30 0 -37 -14 -30 -55 6 -29 13 -36 42 -44 34
-9 55 -5 94 18 15 9 49 23 155 61 33 12 69 27 80 33 11 6 63 26 115 45 223 81
265 94 303 89 54 -7 117 3 117 19 0 8 -9 14 -20 14 -23 0 -24 3 -8 30 9 15 9
24 -1 43 -19 36 -52 38 -108 7z"/>
<path d="M4650 5541 c0 -5 -9 -13 -20 -16 -28 -9 -25 -25 5 -25 14 0 25 -4 25
-9 0 -5 9 -11 20 -14 13 -3 20 0 20 10 0 8 5 11 10 8 7 -4 4 -17 -7 -36 -17
-28 -17 -28 -38 -10 -26 25 -45 28 -73 12 -33 -18 -40 -6 -11 18 l24 19 -60 0
c-82 -1 -118 -40 -46 -50 33 -4 36 -22 7 -37 -29 -16 -24 -41 8 -42 20 0 20
-1 -3 -10 -18 -7 -27 -6 -32 3 -4 7 -11 10 -14 6 -3 -3 0 -12 7 -19 19 -20 37
-60 40 -89 2 -18 8 -24 23 -23 18 2 21 -4 21 -45 0 -39 3 -49 23 -58 14 -7 19
-14 12 -18 -6 -4 -11 -17 -12 -29 l0 -22 -9 22 c-5 12 -18 31 -30 43 -13 13
-19 28 -15 40 4 13 0 20 -14 25 -11 3 -29 17 -40 31 -35 44 -78 19 -51 -31 7
-13 9 -28 6 -34 -4 -6 1 -15 11 -19 41 -17 83 -48 83 -60 0 -7 4 -11 9 -7 5 3
12 1 16 -5 4 -6 -6 -10 -23 -10 -22 0 -42 13 -85 59 -31 32 -59 69 -62 82 -5
19 -13 24 -43 26 -20 1 -38 7 -40 12 -2 6 -10 11 -19 11 -17 0 -11 -30 15 -70
l15 -25 -29 20 c-16 10 -35 24 -42 31 -13 14 -39 8 -60 -13 -7 -7 -20 -13 -28
-13 -12 0 -19 -19 -15 -42 0 -5 -4 -8 -11 -8 -6 0 -20 -8 -30 -17 -18 -16 -18
-16 -12 2 5 12 4 16 -3 12 -7 -5 -9 0 -6 13 4 16 0 20 -22 20 -37 0 -27 22 16
35 27 8 34 15 34 35 0 22 4 24 35 23 45 -2 97 17 78 28 -10 7 -10 11 0 21 20
20 14 33 -7 14 -10 -9 -28 -18 -40 -21 -11 -2 -27 -7 -34 -10 -6 -3 -4 0 7 7
10 7 29 23 41 35 13 12 26 19 29 16 9 -9 7 10 -3 25 -6 10 -18 5 -49 -21 -33
-28 -47 -33 -79 -31 -21 2 -42 3 -47 3 -5 1 3 12 18 26 28 26 42 33 31 15 -15
-24 61 7 77 32 6 11 10 11 17 -1 5 -7 11 -9 14 -5 20 34 -88 40 -118 7 -12
-13 -38 -25 -65 -29 -25 -3 -49 -12 -55 -19 -5 -6 -27 -15 -47 -19 -28 -5 -38
-12 -38 -26 0 -10 5 -20 10 -22 6 -2 1 -9 -11 -16 -12 -8 -18 -9 -14 -3 15 24
-13 9 -33 -18 -16 -22 -30 -29 -50 -29 -16 1 -40 -6 -53 -16 -13 -9 -20 -16
-15 -16 5 0 3 -6 -3 -14 -6 -7 -9 -21 -5 -30 3 -9 1 -16 -5 -16 -6 0 -11 11
-11 25 0 17 -6 25 -17 25 -15 0 -16 2 -3 10 12 8 11 10 -7 10 -14 0 -23 -6
-23 -15 0 -9 -12 -18 -30 -21 -29 -6 -64 -34 -42 -34 6 0 12 4 14 10 2 6 8 6
18 0 13 -8 13 -10 -1 -10 -9 0 -23 -8 -30 -17 -12 -15 -12 -16 7 -11 14 3 25
-1 33 -13 9 -15 8 -19 -4 -19 -25 0 -17 -28 13 -44 15 -8 21 -15 15 -16 -7 0
-13 -4 -13 -9 0 -4 19 -5 42 -1 47 9 69 4 62 -13 -4 -11 -56 -14 -121 -9 -12
1 -29 15 -39 32 -14 22 -21 27 -31 18 -7 -6 -13 -18 -13 -27 0 -9 -5 -22 -11
-28 -15 -15 -4 -43 17 -43 10 0 27 8 38 18 21 17 21 17 3 -5 -10 -11 -30 -24
-44 -28 -21 -5 -23 -8 -12 -21 6 -8 9 -17 6 -21 -4 -3 -9 2 -13 11 -3 9 -14
16 -23 16 -13 0 -13 2 -2 9 11 7 10 11 -7 20 -29 16 -37 14 -21 -6 13 -15 12
-15 -9 -4 -13 7 -26 10 -29 7 -3 -2 -16 -1 -29 4 -18 7 -22 6 -18 -4 3 -8 0
-17 -6 -21 -6 -3 -10 -3 -9 2 1 4 1 17 0 28 -2 19 -3 19 -22 -4 -12 -15 -16
-27 -10 -31 12 -7 -31 -75 -63 -101 -12 -10 -15 -18 -8 -22 6 -4 17 0 25 8 21
20 27 19 27 -5 0 -13 -7 -20 -20 -20 -13 0 -18 -5 -14 -15 10 -26 -10 -16 -28
13 l-17 27 -16 -37 c-10 -24 -22 -38 -33 -38 -10 0 -29 -11 -42 -25 -14 -15
-26 -21 -30 -15 -7 12 -70 -7 -70 -21 0 -5 -7 -9 -16 -9 -9 0 -22 -6 -28 -14
-6 -8 -21 -17 -33 -20 -16 -5 -21 -3 -19 10 3 18 41 43 67 44 9 0 24 9 34 20
10 11 22 17 26 14 5 -3 9 0 9 6 0 6 4 9 9 5 5 -3 16 2 24 10 9 8 23 15 31 15
9 0 16 5 16 10 0 17 18 11 22 -7 3 -10 8 1 12 25 4 23 12 42 17 42 5 0 9 14 9
31 0 17 7 37 15 45 13 14 15 13 15 -10 0 -37 17 -32 39 12 24 47 38 107 22 98
-6 -4 -11 -1 -11 6 0 8 -7 23 -16 34 -14 18 -15 18 -4 -5 9 -17 9 -26 1 -34
-8 -8 -11 -5 -11 10 0 19 -3 21 -32 12 -17 -5 -34 -12 -37 -17 -23 -31 -124
-62 -114 -35 3 7 11 13 18 13 7 0 16 7 19 16 4 10 14 14 26 11 14 -3 26 3 40
20 28 36 25 51 -5 19 -26 -28 -45 -34 -45 -13 0 8 12 20 28 27 15 7 22 15 14
17 -6 3 -9 10 -6 16 5 8 2 8 -7 0 -19 -18 -34 -16 -19 2 22 26 3 28 -21 2 -13
-13 -34 -27 -46 -30 -20 -4 -21 -3 -12 14 5 10 16 19 24 19 7 0 17 5 20 11 5
7 -3 9 -21 7 -16 -2 -29 -7 -30 -13 -2 -28 -25 -63 -43 -68 -12 -3 -21 -13
-21 -24 0 -11 3 -14 8 -7 11 16 41 24 47 14 3 -5 -21 -37 -55 -70 -54 -55 -74
-80 -52 -66 4 2 14 1 21 -3 10 -7 10 -14 -3 -38 -8 -17 -23 -33 -32 -37 -9 -4
-14 -9 -11 -13 4 -3 2 -12 -4 -20 -17 -20 10 -17 34 5 19 17 19 17 0 -18 -17
-31 -68 -68 -115 -86 -19 -7 -25 -24 -8 -24 6 0 9 -4 8 -9 -2 -5 6 -17 17 -25
15 -12 16 -15 5 -16 -8 0 -27 14 -42 32 l-26 32 5 -28 c4 -20 2 -27 -6 -22 -6
4 -11 13 -11 21 0 10 -20 25 -35 25 -2 0 -5 -25 -7 -55 -1 -30 0 -55 3 -55 4
0 18 9 32 20 47 37 53 13 8 -29 l-30 -28 29 -1 c29 -1 78 -21 52 -22 -7 0 -11
-4 -8 -9 3 -5 15 -7 26 -4 15 4 20 0 20 -13 0 -13 -3 -15 -11 -7 -10 10 -49 7
-49 -4 0 -3 10 -14 23 -24 21 -19 21 -20 1 -10 -24 11 -34 6 -34 -18 0 -12 2
-13 8 -3 6 8 15 3 32 -20 13 -18 29 -37 37 -41 20 -12 16 -25 -14 -39 -16 -8
-29 -23 -31 -36 -2 -13 -10 -26 -18 -29 -8 -3 -14 -13 -14 -22 0 -14 -2 -14
-10 -1 -6 9 -5 17 1 21 6 3 7 18 3 32 -5 22 -3 27 12 27 14 0 15 3 6 12 -7 7
-12 22 -12 34 0 13 -4 26 -10 29 -11 7 -13 -5 -10 -42 1 -13 -3 -23 -9 -23 -6
0 -10 -6 -9 -12 2 -7 -4 -13 -12 -13 -8 0 -15 7 -15 15 0 8 -4 21 -9 28 -6 11
-12 10 -27 -4 -18 -17 -21 -16 -47 8 -38 36 -63 24 -80 -38 -7 -27 -18 -57
-23 -67 -11 -19 -9 -128 2 -121 13 8 21 -56 9 -71 -7 -8 -7 -15 -1 -19 6 -4 8
-13 5 -21 -3 -7 2 -25 11 -38 14 -21 14 -29 3 -46 -7 -12 -20 -21 -30 -21 -9
0 -18 -5 -20 -12 -2 -6 -10 -8 -16 -4 -18 11 -15 23 8 29 17 4 19 12 15 63 -2
33 -4 82 -5 109 -1 44 -2 48 -14 33 -18 -24 -29 -23 -21 3 5 15 4 19 -4 15 -6
-4 -11 -3 -11 1 0 5 -10 13 -22 18 -14 6 -24 20 -25 35 -2 14 0 19 4 10 13
-31 73 -65 73 -41 0 6 -3 10 -7 10 -21 -3 -23 3 -9 23 17 25 21 68 7 68 -6 0
-6 12 0 32 5 18 5 34 0 36 -4 1 -5 22 0 45 12 60 10 66 -7 34 -9 -16 -13 -35
-10 -43 5 -12 2 -12 -15 -3 -11 6 -22 9 -23 7 -2 -2 -10 -14 -19 -28 -9 -13
-17 -18 -17 -11 0 11 -3 11 -15 1 -10 -8 -15 -27 -13 -51 2 -44 -3 -52 -25
-43 -15 5 -15 8 -1 21 11 11 12 19 4 28 -8 10 -7 14 2 18 7 2 10 7 7 11 -13
14 -37 -7 -43 -36 -7 -37 7 -58 39 -58 23 0 23 -1 8 -30 -9 -19 -12 -41 -8
-60 l7 -30 -47 7 c-47 6 -47 6 -35 -16 14 -28 3 -42 -15 -18 -7 10 -19 15 -29
11 -19 -7 -21 -25 -4 -42 9 -9 7 -12 -10 -12 -12 0 -22 -6 -22 -12 0 -7 -3
-23 -6 -35 -5 -18 -1 -23 20 -29 22 -5 33 1 65 35 22 23 42 47 45 54 2 7 5 4
5 -7 1 -10 -12 -34 -29 -53 -16 -18 -30 -38 -30 -44 0 -22 61 -69 90 -69 20 0
35 -8 46 -25 9 -14 23 -25 30 -25 8 0 21 -24 31 -61 11 -39 24 -64 37 -71 20
-11 20 -11 1 -19 -17 -6 -17 -8 -2 -8 9 -1 17 -7 17 -15 0 -8 -6 -13 -13 -12
-6 0 -13 -3 -14 -9 -1 -5 5 -9 13 -7 8 2 14 -2 14 -8 0 -5 -8 -10 -17 -10 -13
0 -14 -3 -6 -11 9 -9 18 -8 36 4 l25 16 -29 60 c-16 34 -29 67 -29 75 0 8 -8
20 -18 25 -9 6 -12 11 -5 11 13 0 5 41 -9 51 -6 3 -3 9 6 12 11 5 16 1 16 -13
0 -11 7 -20 15 -20 8 0 25 -11 38 -24 18 -18 31 -22 56 -18 l32 4 -20 22 c-30
32 -26 41 9 16 19 -14 30 -30 30 -46 0 -13 3 -24 8 -24 4 0 13 -13 20 -29 12
-28 14 -29 41 -15 37 18 47 68 20 102 -10 13 -25 49 -35 80 -14 49 -17 54 -25
35 -5 -15 -14 -21 -24 -17 -9 4 -15 1 -15 -7 0 -11 -3 -11 -10 1 -13 20 -13
33 0 25 14 -9 12 19 -2 34 -11 11 -9 12 10 6 13 -4 22 -2 22 4 0 6 -4 11 -10
11 -5 0 -10 9 -10 20 0 11 -6 20 -13 20 -12 0 -28 30 -42 77 -5 17 -3 22 8 17
8 -3 17 -23 21 -45 3 -21 11 -39 17 -39 6 0 9 7 6 15 -4 8 -2 17 3 20 5 3 11
-3 13 -12 4 -17 5 -17 6 0 2 30 21 18 21 -14 0 -17 7 -38 16 -46 10 -10 13
-25 9 -42 -4 -17 -3 -21 3 -12 8 11 10 11 15 0 3 -8 6 -9 6 -2 1 16 41 4 41
-13 0 -8 7 -14 16 -14 11 0 14 5 10 16 -5 12 -2 15 10 10 8 -3 21 -6 27 -6 7
-1 -3 -9 -22 -19 -32 -17 -33 -18 -11 -24 13 -3 31 -2 41 3 12 7 19 5 23 -6 6
-17 44 -11 59 10 6 7 7 4 3 -6 -3 -12 0 -18 9 -18 8 0 15 7 15 15 0 8 5 15 10
15 6 0 10 -7 10 -15 0 -16 -24 -29 -74 -40 -23 -5 -27 -8 -15 -16 7 -5 27 -6
43 -3 21 5 27 3 21 -6 -5 -9 -4 -11 4 -6 6 4 9 12 6 17 -4 5 0 9 8 9 8 0 18
11 21 25 4 14 11 25 16 25 10 0 -6 -44 -24 -69 -9 -11 -7 -13 12 -7 38 13 25
-18 -15 -34 -33 -14 -35 -17 -21 -30 11 -11 13 -22 7 -45 -5 -16 -9 -36 -9
-42 0 -18 29 -16 36 2 9 22 27 18 21 -5 -6 -23 -3 -24 22 -8 15 9 25 7 52 -10
19 -11 41 -20 49 -20 8 1 29 0 45 -1 l30 -1 -33 -17 c-29 -14 -35 -14 -43 -2
-7 11 -9 11 -9 -3 0 -11 8 -18 20 -18 11 0 20 -7 20 -15 0 -13 -4 -13 -22 -3
-13 7 -29 21 -36 31 -15 20 -32 23 -32 5 1 -19 61 -81 92 -95 14 -6 37 -9 49
-7 19 4 17 2 -6 -9 -21 -10 -26 -15 -16 -21 10 -6 10 -10 2 -16 -9 -5 -7 -11
5 -21 12 -9 15 -10 10 -1 -4 6 -3 12 3 12 16 0 26 -23 12 -28 -8 -3 -5 -9 8
-19 12 -8 21 -26 22 -41 l1 -27 8 25 c8 24 8 24 9 3 1 -28 21 -31 21 -3 0 11
5 20 11 20 7 0 8 -7 4 -17 -12 -31 -10 -38 8 -37 9 1 17 -2 17 -7 0 -5 11 -9
24 -9 18 0 29 -9 40 -32 19 -37 19 -38 6 -38 -5 0 -16 14 -25 30 -18 35 -35
40 -29 8 2 -13 2 -17 -2 -10 -8 17 -24 15 -24 -3 0 -8 12 -26 28 -40 26 -25
27 -26 8 -40 -11 -8 -14 -15 -8 -15 7 0 12 -7 12 -15 0 -20 14 -19 31 1 12 14
14 14 21 -6 10 -27 3 -40 -23 -40 -31 0 -61 -20 -55 -36 3 -8 2 -14 -3 -14 -5
0 -11 -8 -14 -17 -2 -10 -8 -26 -12 -35 -7 -17 9 -20 33 -5 6 5 17 5 22 2 6
-3 15 -3 22 1 8 5 6 10 -8 15 -18 7 -18 7 0 14 12 5 28 2 45 -9 14 -10 42 -24
63 -33 20 -8 38 -24 41 -34 3 -12 11 -16 26 -12 12 3 21 9 21 14 0 5 12 9 26
9 16 0 23 4 18 11 -4 7 3 6 17 -2 20 -11 21 -14 7 -17 -20 -4 -24 -22 -5 -22
8 0 7 -4 -3 -11 -11 -8 -5 -9 25 -4 43 7 129 16 157 16 10 0 17 3 15 7 -2 8 7
12 31 12 14 0 15 -2 2 -10 -13 -8 -13 -10 2 -10 9 0 28 5 42 11 20 10 28 8 47
-10 20 -19 21 -23 9 -31 -12 -8 -11 -11 7 -16 14 -4 20 -11 16 -21 -5 -13 4
-14 57 -8 71 8 142 38 114 49 -22 8 -24 8 -24 -7 0 -21 -87 -4 -113 22 -13 12
-16 21 -9 21 7 0 10 5 7 10 -4 6 10 10 34 10 23 0 41 -5 41 -10 0 -6 -10 -8
-24 -4 -13 3 -27 1 -30 -4 -10 -17 11 -24 49 -16 30 5 33 9 25 25 -8 14 -7 17
3 14 12 -5 14 0 20 59 1 13 5 22 10 19 4 -2 12 9 18 26 13 37 16 37 45 10 15
-14 40 -22 80 -25 39 -3 64 -11 73 -22 12 -15 13 -15 8 5 -3 13 0 26 5 29 6 4
3 11 -8 17 -13 7 -19 7 -22 -1 -2 -8 -14 -7 -39 3 -19 8 -39 12 -44 9 -5 -3
-9 2 -9 10 0 18 36 25 73 13 15 -5 38 -6 52 -3 18 5 23 3 19 -8 -3 -7 1 -20 8
-27 15 -16 19 -61 6 -70 -5 -3 -11 -21 -13 -40 -4 -30 -3 -32 9 -16 13 17 42
25 31 8 -8 -15 10 -22 67 -26 29 -2 54 -8 56 -14 6 -17 27 -13 47 9 10 11 26
20 36 20 10 0 21 9 24 20 4 13 15 20 30 20 13 0 28 6 32 14 10 18 63 33 63 18
0 -6 -14 -13 -30 -17 -17 -4 -28 -11 -24 -16 9 -16 28 -10 63 21 33 29 71 40
71 20 0 -5 10 -10 21 -10 18 0 19 -2 9 -15 -8 -9 -9 -15 -2 -15 6 0 13 4 16 9
3 5 21 9 40 9 18 0 43 5 53 11 11 6 24 7 28 3 5 -4 5 -1 1 6 -4 6 -14 12 -22
12 -17 0 -19 17 -2 22 8 3 2 15 -17 32 -16 15 -21 24 -11 20 12 -5 17 -2 14 7
-2 8 2 16 7 17 6 2 12 -7 15 -20 3 -12 15 -27 26 -33 11 -5 18 -17 16 -27 -2
-9 1 -19 7 -22 12 -8 42 4 36 14 -3 5 0 20 6 34 10 22 9 28 -12 44 l-23 19 22
7 c12 4 22 14 22 22 0 16 9 18 29 5 15 -10 51 15 51 36 0 10 -7 9 -27 -3 l-28
-16 25 21 c14 11 31 21 38 21 17 0 15 20 -3 20 -10 0 -15 10 -15 28 0 18 3 23
9 14 4 -8 12 -13 16 -12 4 1 13 -9 19 -21 13 -27 43 -40 33 -15 -7 17 1 20 20
8 14 -9 37 -62 35 -82 -1 -8 3 -5 10 7 6 13 24 28 40 35 34 16 42 36 33 90 -8
43 -25 36 -25 -11 0 -24 0 -24 -21 -5 -20 18 -20 18 -15 -11 6 -29 6 -29 -4
-5 -17 38 -17 44 4 45 19 0 25 8 45 58 6 15 17 27 26 27 20 0 57 38 50 50 -3
6 1 7 9 4 20 -8 20 -9 0 -29 -9 -9 -13 -19 -10 -23 4 -3 19 8 33 26 14 18 31
31 38 28 8 -2 16 2 19 10 3 8 1 12 -4 9 -6 -3 -7 1 -4 9 3 9 12 16 20 16 8 0
14 1 14 3 0 1 7 20 15 42 10 29 14 34 15 17 0 -31 20 -18 20 13 0 31 -35 30
-49 -2 -6 -13 -16 -23 -22 -23 -7 0 -18 -8 -26 -17 -8 -10 -12 -13 -9 -7 3 7
-1 17 -8 23 -11 10 -15 8 -19 -6 -4 -17 -5 -17 -6 0 -1 24 -31 22 -31 -3 0
-11 6 -20 13 -20 8 0 7 -3 -3 -9 -22 -15 -32 -2 -28 35 4 38 -5 42 -42 17 -24
-16 -24 -16 -11 0 7 9 10 17 5 17 -5 0 -2 5 6 10 8 5 25 7 37 4 24 -6 57 20
65 54 6 23 -7 31 -15 10 -3 -8 -6 -6 -6 4 -1 9 19 31 44 48 48 33 53 41 32 59
-10 8 -23 6 -52 -9 -22 -11 -49 -20 -62 -20 -12 0 -25 -4 -28 -10 -9 -15 -34
-12 -51 5 -11 11 -20 12 -34 5 -23 -12 -67 -13 -74 -2 -8 14 61 42 102 42 34
1 36 2 18 15 -10 8 -23 12 -27 9 -5 -3 -9 0 -9 7 0 13 16 9 75 -16 37 -16 38
-16 25 0 -13 15 -11 17 15 15 56 -4 62 -1 37 20 -13 11 -21 24 -18 29 4 5 2
12 -3 15 -11 7 -3 46 9 46 5 0 10 -5 12 -10 2 -6 12 3 22 21 17 28 17 31 1 22
-9 -6 -27 -8 -40 -5 -21 4 -22 7 -12 38 6 19 14 34 19 34 5 0 7 4 3 10 -3 5
-12 7 -20 3 -8 -3 -15 0 -15 6 0 14 11 14 46 1 40 -15 41 -4 3 20 -26 17 -28
21 -11 17 12 -3 22 0 22 6 0 6 7 2 15 -9 13 -17 14 -17 15 -1 0 19 11 22 27 6
16 -16 35 49 28 102 -4 40 -4 41 5 14 6 -16 9 -45 6 -63 -3 -19 -1 -30 5 -27
5 4 9 -3 9 -15 0 -12 -4 -18 -10 -15 -5 3 -10 1 -10 -4 0 -6 9 -11 20 -11 15
0 20 7 20 25 0 14 -5 25 -10 25 -6 0 -9 11 -7 25 3 28 17 46 17 23 0 -24 28
-30 40 -8 15 28 12 71 -7 92 -9 10 -13 21 -10 24 12 12 46 -40 42 -63 -5 -32
13 -29 21 3 5 19 2 29 -10 36 -9 5 -16 17 -16 26 0 13 5 12 25 -8 19 -20 24
-37 26 -83 2 -51 5 -58 21 -54 19 5 24 -3 9 -18 -5 -6 -12 -21 -16 -35 -7 -24
-7 -24 12 -7 26 23 33 22 33 -8 0 -14 -6 -25 -12 -25 -10 0 -9 -3 1 -9 7 -5
10 -14 6 -21 -6 -9 -9 -9 -16 1 -6 10 -9 5 -9 -16 l-1 -30 -14 33 c-8 17 -16
32 -17 32 -2 0 -4 -18 -5 -41 -2 -42 21 -65 38 -38 7 11 9 11 9 -3 0 -16 80
-78 101 -78 5 0 9 8 9 18 0 13 -2 14 -9 3 -5 -8 -11 -9 -15 -3 -8 13 3 44 14
37 4 -2 12 7 18 20 19 42 33 28 16 -15 -15 -37 -15 -42 0 -65 26 -40 41 -32
37 21 -2 22 32 59 47 50 5 -3 12 3 15 14 3 11 1 20 -3 20 -15 0 -21 39 -10 60
12 22 18 24 40 10 12 -7 11 -12 -9 -29 -19 -17 -21 -23 -12 -35 10 -12 10 -22
0 -50 -7 -19 -17 -34 -23 -33 -5 1 -11 -7 -13 -18 -1 -11 0 -14 3 -7 3 6 10
10 14 7 5 -3 18 12 30 35 11 22 31 47 44 55 12 8 28 26 34 40 8 17 20 25 36
25 28 0 40 23 26 49 -5 10 -8 44 -6 75 l3 58 -27 -6 c-24 -4 -27 -2 -23 14 3
11 13 22 24 25 19 6 17 27 -6 55 -7 8 -13 33 -13 55 0 39 -18 102 -27 93 -3
-2 -1 -18 4 -34 11 -39 6 -93 -9 -107 -10 -10 -11 -5 -7 20 5 24 0 40 -18 68
-16 23 -23 44 -19 58 3 15 -3 33 -18 52 -12 16 -17 26 -10 21 18 -11 15 7 -13
68 -26 57 -31 86 -16 86 14 0 51 -50 51 -69 0 -14 2 -14 10 -1 5 8 10 32 10
53 0 30 -7 45 -32 70 -18 18 -33 39 -33 47 0 8 -8 16 -18 18 -10 2 -17 -3 -17
-12 0 -9 -4 -16 -10 -16 -18 0 3 -31 31 -46 33 -17 38 -40 9 -40 -11 0 -20 6
-20 12 0 14 -49 48 -57 40 -3 -3 1 -20 8 -38 8 -18 14 -40 14 -48 1 -8 6 -14
13 -12 7 1 17 -10 23 -25 6 -16 15 -36 21 -46 7 -15 6 -18 -9 -15 -13 3 -17
11 -15 31 1 15 -2 27 -8 27 -5 0 -10 -16 -10 -36 0 -31 -3 -35 -20 -29 -24 8
-29 -20 -5 -29 8 -3 15 -11 15 -18 0 -10 -2 -10 -9 1 -6 10 -18 -2 -42 -43
-19 -31 -37 -56 -40 -56 -10 0 -16 81 -7 86 15 9 8 26 -8 20 -11 -4 -14 -1 -9
13 3 11 -3 28 -14 42 -18 21 -20 21 -21 6 0 -10 -4 -16 -9 -12 -6 3 -9 27 -7
53 2 26 2 36 -1 22 -8 -44 -23 -47 -23 -4 -1 36 -2 38 -15 20 -13 -17 -19 -15
-17 5 2 15 -44 2 -55 -16 -11 -18 -12 -18 -13 -2 0 9 -4 17 -9 17 -5 0 -12 -8
-14 -17 -3 -10 -4 -2 -4 17 1 19 9 40 17 47 13 11 13 12 -2 13 -10 0 -18 5
-18 11 0 7 9 9 21 6 15 -4 18 -2 10 7 -6 7 -8 15 -5 19 3 3 -6 13 -20 22 -26
17 -35 49 -16 60 5 3 18 -2 28 -12 10 -10 28 -27 41 -37 22 -20 22 -20 15 0
-4 10 -15 24 -23 30 -13 10 -13 15 3 39 23 36 14 43 -13 9 -13 -17 -26 -24
-36 -20 -9 3 -13 11 -9 17 5 8 1 8 -14 0 -28 -15 -48 -14 -66 5 -23 22 -20 30
15 44 l31 13 -25 14 c-25 13 -57 9 -57 -7 0 -5 10 -11 23 -13 22 -4 22 -4 0
-6 -12 0 -24 -10 -28 -21 -7 -22 -39 -27 -51 -8 -5 8 0 9 14 6 17 -5 22 -2 22
13 0 10 9 28 20 39 18 18 18 24 -2 21 -5 0 -8 6 -8 14 0 19 14 19 34 0 20 -20
33 -19 41 5 3 11 13 20 22 20 10 0 14 6 10 20 -3 13 0 20 9 20 8 0 14 -5 14
-12 0 -6 3 -8 6 -5 4 4 -1 18 -10 31 -21 33 -20 39 4 26 44 -24 13 29 -39 64
-22 16 -38 32 -36 37 3 4 1 11 -5 14 -8 5 -8 11 0 20 8 10 4 18 -16 34 -31 24
-40 26 -47 9 -4 -9 -6 -7 -6 3 -1 9 -10 24 -21 34 -11 10 -20 24 -20 31 0 10
-7 9 -30 -2 -35 -18 -41 -53 -10 -61 20 -5 29 -33 10 -33 -12 0 -49 20 -65 35
-19 17 -14 43 7 37 10 -2 18 0 18 5 0 13 -53 58 -64 55 -4 -2 -14 5 -21 14
-13 19 -19 13 -29 -29 -6 -26 24 -101 48 -118 4 -4 5 -22 1 -40 l-6 -34 15 25
c8 14 20 34 25 45 11 23 12 22 16 -22 2 -21 -1 -30 -8 -26 -7 4 -8 -11 -4 -45
4 -38 13 -59 32 -76 l25 -24 -25 -6 c-14 -4 -35 -1 -48 5 -12 7 -23 12 -25 11
-1 -1 -14 5 -27 14 -14 9 -28 14 -32 10 -3 -3 -1 -6 6 -6 7 0 9 -5 6 -10 -3
-6 1 -13 9 -16 16 -6 23 -34 8 -34 -13 0 -54 59 -48 69 3 5 -1 14 -9 21 -16
14 -21 50 -6 50 5 0 12 8 14 18 4 14 5 13 6 -4 0 -11 11 -29 22 -40 l22 -19
-8 95 c-4 52 -9 98 -12 103 -10 16 -22 -5 -29 -49 -4 -30 -10 -42 -16 -36 -7
7 -6 28 2 62 10 44 10 53 -3 68 -10 11 -13 27 -10 45 3 17 1 27 -6 27 -7 0 -9
4 -6 10 3 5 -12 3 -34 -4 -37 -14 -40 -13 -60 10 -12 14 -19 29 -16 34 6 9 44
2 63 -13 16 -13 24 -4 16 17 -4 10 -13 14 -23 11 -25 -7 -62 28 -64 61 -1 15
-9 30 -16 32 -10 3 -12 0 -8 -12 4 -9 2 -16 -2 -16 -5 0 -18 -3 -28 -7 -16 -6
-16 -5 -4 10 18 22 12 21 -51 -6 -50 -23 -56 -23 -102 -10 -44 13 -51 13 -87
-6 -46 -24 -49 -20 -12 15 23 21 25 27 13 34 -8 6 -28 10 -43 10 -15 0 -30 7
-33 15 -7 16 -24 21 -24 6z m279 -537 c-20 -21 -41 -33 -53 -32 -13 2 -22 -4
-24 -15 -3 -15 0 -16 23 -7 14 5 31 10 38 10 17 0 -4 -17 -28 -23 -17 -3 -15
-6 13 -17 18 -7 31 -15 27 -18 -8 -8 26 -42 43 -42 8 0 12 -6 8 -15 -3 -8 -4
-15 -2 -15 3 0 12 -3 20 -6 14 -5 15 -2 6 21 -10 27 -10 28 12 13 13 -8 29
-28 37 -43 12 -25 15 -27 26 -12 6 9 16 13 21 8 5 -5 23 -11 40 -14 31 -6 32
-6 24 26 -14 64 -2 65 56 8 20 -20 26 -22 39 -11 9 8 15 9 14 4 -4 -23 16 -53
42 -64 41 -17 36 -25 -16 -26 -38 -1 -45 2 -45 18 0 20 -57 88 -73 88 -6 0 -3
-8 5 -17 9 -10 13 -23 11 -30 -2 -6 5 -16 15 -22 11 -6 23 -22 26 -36 4 -14
11 -25 17 -25 6 0 22 -14 36 -30 13 -17 30 -27 36 -23 6 4 8 1 5 -8 -4 -9 2
-15 18 -16 13 -2 35 -4 49 -5 27 -3 35 -18 10 -18 -8 0 -15 -6 -15 -12 -1 -7
-8 -4 -18 8 -13 16 -23 19 -40 13 -12 -5 -24 -4 -27 1 -13 21 -27 9 -21 -17 4
-23 2 -22 -10 7 -9 19 -22 39 -30 43 -8 5 -12 12 -9 18 7 10 -28 13 -38 3 -3
-4 0 -13 8 -21 17 -16 20 -37 5 -28 -5 3 -10 1 -10 -6 0 -8 -7 -7 -23 4 -19
12 -26 13 -41 1 -15 -11 -18 -21 -13 -59 4 -27 3 -45 -3 -45 -6 0 -10 6 -11
13 -1 11 -7 -1 -24 -50 -4 -12 -16 -25 -26 -28 -10 -4 -28 -21 -41 -38 -12
-18 -23 -34 -25 -37 -2 -2 -8 2 -13 10 -7 11 -3 18 13 27 18 10 19 12 5 13
-10 0 -18 5 -18 11 0 5 5 7 10 4 6 -4 10 -3 9 2 -3 20 2 34 11 28 6 -3 10 -1
10 4 0 6 5 10 11 9 10 -3 33 51 26 58 -9 9 -97 -95 -97 -114 0 -5 -18 -10 -41
-10 -22 -1 -51 -8 -64 -16 -16 -11 -26 -12 -30 -5 -4 6 -5 11 -4 12 2 1 34 18
72 37 68 35 83 50 47 50 -11 0 -20 -4 -20 -10 0 -5 -5 -10 -11 -10 -6 0 -9 5
-7 12 4 11 -24 62 -52 95 -12 15 -13 43 -1 43 4 0 6 11 3 25 -2 14 -9 25 -14
25 -5 0 -6 -9 -3 -20 3 -11 2 -20 -3 -20 -11 0 -19 37 -14 62 2 9 16 23 33 30
36 16 38 38 3 38 -16 0 -23 -4 -18 -12 4 -7 3 -8 -5 -4 -14 9 3 36 23 36 7 0
21 10 33 23 21 25 16 66 -9 68 -30 2 -51 8 -66 22 -10 8 -22 12 -29 10 -6 -2
-14 1 -18 6 -3 6 0 11 8 11 8 0 18 7 21 15 9 24 -22 30 -47 9 -22 -19 -22 -19
-4 2 20 24 22 44 5 44 -9 0 -9 3 0 13 12 11 70 18 160 18 17 0 32 5 32 10 0 6
5 7 11 3 7 -4 -2 -19 -22 -40z m-716 -461 c15 -7 27 -11 27 -7 0 4 11 -4 24
-17 19 -19 23 -33 21 -72 -1 -26 -5 -50 -9 -54 -3 -3 -6 -1 -6 6 0 7 -4 9 -10
6 -5 -3 -10 -1 -10 6 0 21 -23 -7 -25 -30 -2 -26 -33 -61 -54 -61 -14 0 -14
-2 -1 -10 14 -9 6 -15 -15 -10 -5 1 -23 4 -40 7 -31 5 -40 10 -40 21 0 4 -8
18 -17 32 -9 14 -20 52 -23 85 -6 51 -4 62 11 76 53 46 106 53 167 22z m-765
-88 c-3 -3 -22 -8 -43 -10 -36 -5 -65 -20 -65 -34 0 -3 24 -6 54 -7 45 0 53 3
48 15 -5 14 -4 14 12 2 13 -11 14 -16 4 -22 -15 -10 -11 -14 27 -26 29 -9 49
-43 25 -43 -6 0 -9 4 -5 9 6 10 -33 26 -42 18 -8 -9 7 -28 18 -22 5 4 9 1 9
-4 0 -6 5 -11 11 -11 18 0 46 -33 31 -38 -6 -2 -12 -10 -12 -18 0 -7 -6 -11
-13 -8 -8 3 -19 -5 -26 -18 -7 -15 -10 -16 -6 -4 8 28 -22 68 -48 64 -12 -1
-28 1 -35 6 -10 6 -9 0 2 -22 9 -17 16 -40 16 -51 0 -26 17 -36 36 -20 13 10
13 8 4 -17 -6 -15 -16 -34 -21 -40 -7 -9 -6 -15 3 -21 16 -10 36 -45 53 -93
l13 -38 -32 21 c-17 12 -41 35 -51 51 -20 30 -45 46 -45 28 0 -5 9 -12 20 -15
11 -3 20 -13 20 -22 0 -15 -2 -16 -17 -4 -10 8 -25 23 -34 34 -17 19 -17 18
-10 -20 10 -53 4 -72 -16 -48 -13 16 -14 12 -10 -40 2 -32 0 -60 -5 -63 -4 -3
-6 -10 -3 -15 4 -5 -2 -9 -12 -9 -11 0 -24 -5 -30 -11 -8 -8 -11 -1 -10 25 1
20 5 36 11 36 6 0 5 5 -2 12 -15 15 -16 58 0 58 6 0 1 11 -11 24 -13 14 -21
29 -18 33 3 5 -4 21 -16 34 -12 14 -27 34 -33 44 -6 11 -17 20 -25 20 -44 2
-93 21 -120 46 -29 27 -30 29 -13 54 9 14 25 25 35 25 11 0 19 5 19 10 0 6 6
10 13 9 44 -6 57 1 57 31 0 23 5 30 19 30 11 0 23 -4 26 -10 11 -19 57 -11 62
10 3 11 9 20 14 20 5 0 17 17 28 38 13 23 20 30 21 19 0 -14 5 -17 23 -11 12
4 29 7 37 8 8 1 21 7 29 14 10 9 17 10 24 3 6 -6 8 -13 5 -16z m2508 -82 c23
-65 34 -74 35 -32 1 23 3 27 6 12 2 -13 9 -23 14 -23 9 0 7 -32 -7 -99 -4 -18
-8 -21 -17 -12 -17 17 -30 13 -24 -9 4 -15 0 -20 -15 -20 -15 0 -19 5 -15 19
3 12 0 18 -7 15 -12 -5 -18 -15 -52 -82 -11 -23 -24 -39 -27 -35 -4 3 -8 -7
-8 -23 -1 -17 -3 -22 -6 -11 -8 31 -23 18 -17 -15 6 -32 6 -32 -9 -13 -22 27
-21 48 3 70 11 10 20 25 20 34 0 14 2 14 10 1 8 -13 10 -13 10 2 0 9 2 22 3
30 2 7 2 9 -1 5 -2 -5 -15 -12 -28 -17 -13 -5 -24 -17 -24 -25 0 -9 -4 -14 -9
-11 -5 4 -7 -3 -4 -14 3 -11 1 -20 -4 -20 -16 0 -31 43 -26 78 3 17 1 32 -3
32 -15 0 -13 48 2 54 9 3 14 20 14 45 0 22 5 43 10 46 6 3 10 0 10 -7 0 -9 3
-9 10 2 17 26 12 -10 -9 -76 -11 -32 -18 -61 -15 -63 2 -2 4 1 4 7 0 7 5 12
10 12 6 0 10 -7 10 -15 0 -8 4 -15 10 -15 13 0 30 34 30 60 0 13 13 28 35 41
30 18 35 27 41 70 4 27 10 49 14 49 5 0 16 -21 26 -47z m-1320 -504 c24 -6 44
-15 44 -19 0 -5 16 -14 36 -20 25 -8 32 -15 24 -20 -7 -5 -20 -6 -28 -2 -10 4
-13 1 -8 -7 5 -7 14 -10 22 -7 8 3 14 -1 14 -10 0 -8 5 -25 12 -37 l12 -22 7
25 c7 25 7 25 8 -3 1 -23 13 -59 26 -75 1 -1 15 4 31 13 16 8 36 12 46 9 10
-3 22 4 32 18 14 19 16 20 16 5 0 -10 -5 -27 -10 -38 -7 -13 -7 -19 -1 -19 6
0 17 14 26 30 9 17 20 30 26 30 7 0 9 9 6 21 -5 17 -3 18 10 7 14 -11 15 -10
9 8 -8 27 2 54 20 54 17 0 18 -12 2 -29 -11 -11 -9 -13 10 -8 12 3 22 2 22 -1
-1 -15 -50 -62 -64 -62 -23 0 -48 -41 -34 -57 7 -9 7 -13 -1 -13 -7 0 -11 -6
-10 -12 2 -7 -3 -33 -10 -57 -14 -48 -9 -60 14 -41 20 17 27 8 19 -24 -8 -32
-10 -32 -57 -1 -42 29 -47 42 -14 41 16 -1 22 5 22 19 0 11 3 25 6 30 4 6 3
19 -1 30 -7 19 -7 19 -18 0 -10 -18 -11 -17 -12 13 0 34 -8 40 -28 20 -9 -9
-12 -9 -12 2 0 11 -3 11 -16 -2 -20 -20 -9 -41 17 -33 23 8 26 -10 3 -19 -12
-4 -15 -15 -12 -37 4 -22 0 -32 -11 -36 -41 -13 -64 -30 -78 -57 -15 -29 -16
-29 -29 -10 -8 10 -23 29 -35 42 -21 22 -21 22 -39 2 -18 -21 -36 -28 -25 -10
10 17 -49 -9 -62 -27 -9 -11 -13 -13 -13 -4 0 7 11 22 25 33 24 19 25 21 8 34
-17 13 -17 13 2 14 16 0 17 2 5 10 -16 10 -51 37 -79 60 -10 8 -24 16 -32 18
-8 2 -18 8 -24 13 -5 6 10 7 42 4 l51 -5 -8 35 c-8 33 -5 39 13 36 15 -3 46
44 41 62 -3 9 -1 17 5 17 6 0 11 -13 11 -30 0 -16 5 -30 11 -30 5 0 7 5 4 11
-4 5 5 21 19 34 14 13 26 31 26 40 0 15 -1 15 -16 1 -8 -9 -18 -16 -22 -16 -3
0 -1 5 6 12 17 17 15 29 -3 22 -8 -4 -15 -2 -15 3 0 6 -10 15 -22 21 -30 14
-17 15 38 1z m-940 -81 c19 -18 34 -40 34 -49 0 -23 30 -45 64 -47 29 -2 49
-19 40 -34 -2 -4 6 -12 18 -19 36 -19 48 -41 42 -74 l-6 -30 29 33 c33 36 40
39 40 18 0 -8 -5 -14 -10 -13 -5 1 -13 -8 -17 -19 -7 -19 -6 -21 12 -16 19 4
19 3 7 -19 -11 -22 -11 -23 4 -10 10 7 17 22 17 32 0 11 4 19 9 19 11 0 4 -57
-10 -80 -7 -12 -8 -12 -9 -1 0 12 -3 11 -17 -2 -10 -8 -34 -22 -53 -29 l-35
-14 48 -28 c60 -36 61 -51 1 -26 -52 23 -128 27 -121 8 3 -9 21 -12 51 -11 51
3 63 -12 17 -22 -15 -3 -34 -17 -41 -30 -8 -15 -18 -21 -28 -18 -10 4 -13 2
-8 -6 4 -6 13 -11 19 -10 29 3 80 -2 74 -8 -4 -3 1 -12 11 -19 16 -12 15 -13
-4 -14 -12 0 -24 -6 -27 -14 -4 -9 -14 -12 -28 -9 -15 4 -20 3 -15 -5 4 -7 1
-12 -9 -12 -10 0 -13 -5 -9 -11 5 -9 -1 -10 -22 -5 -16 4 -42 8 -58 8 -16 1
-40 13 -54 27 -24 24 -26 24 -32 6 -4 -11 -9 -14 -13 -8 -4 6 -1 16 7 22 11 9
22 7 49 -9 24 -14 37 -17 42 -10 4 7 -2 14 -15 17 -13 3 -19 11 -16 19 4 11
-7 14 -49 14 -29 0 -57 5 -60 10 -3 6 -1 10 5 10 7 0 10 15 8 38 -2 24 2 42
12 50 11 10 12 15 3 18 -18 8 -16 27 2 21 8 -4 17 -2 20 3 4 6 -1 10 -10 10
-9 0 -14 4 -10 9 5 10 -12 26 -29 26 -5 0 -11 6 -14 14 -3 9 1 11 16 7 11 -4
23 -3 26 3 5 8 -39 26 -56 23 -11 -3 -10 10 2 28 9 13 13 12 29 -7 22 -26 41
-30 41 -9 0 8 8 13 17 12 10 0 18 5 19 12 1 6 2 13 4 15 1 1 4 18 7 37 2 19
15 45 29 59 25 25 32 51 13 51 -6 0 -8 9 -4 20 5 15 0 26 -19 41 -24 19 -34
39 -20 39 3 0 21 -14 40 -32z"/>
<path d="M1640 5435 c0 -8 12 -17 28 -21 56 -12 64 -16 100 -54 20 -21 60 -48
89 -60 l51 -22 31 23 c33 24 42 45 15 35 -10 -4 -23 3 -35 18 -24 30 -80 50
-136 47 -40 -1 -73 17 -73 40 0 5 -16 9 -35 9 -24 0 -35 -5 -35 -15z"/>
<path d="M7661 5170 c-13 -11 -33 -20 -46 -20 -12 0 -28 -6 -34 -14 -6 -7 -39
-26 -72 -41 -46 -20 -71 -26 -97 -21 -39 6 -108 -10 -130 -29 -7 -6 -26 -9
-42 -7 -26 4 -31 11 -45 59 -16 54 -41 70 -39 24 0 -11 -4 -21 -10 -21 -6 0
-5 -5 2 -12 7 -7 12 -25 12 -41 0 -20 6 -30 20 -34 23 -6 27 -23 5 -23 -9 0
-12 -6 -8 -16 4 -12 1 -15 -13 -12 -10 2 -27 -5 -36 -14 -10 -10 -28 -18 -40
-17 -15 0 -18 3 -8 6 8 4 -3 11 -30 19 -46 14 -169 11 -179 -4 -3 -5 -19 -12
-36 -16 -16 -4 -74 -21 -128 -38 l-99 -30 32 -19 c32 -20 36 -45 7 -43 -12 1
-14 -9 -11 -57 2 -33 10 -71 17 -85 l14 -27 6 33 c4 17 4 43 1 57 -6 22 -4 24
15 18 16 -5 27 1 45 22 14 17 42 33 69 40 33 9 45 17 43 30 -1 14 5 17 23 15
25 -4 97 15 117 30 6 4 44 14 85 22 41 7 88 18 104 24 17 6 54 18 83 27 31 9
63 27 76 42 21 24 26 25 63 16 31 -8 50 -7 84 5 33 11 67 13 134 8 60 -4 85
-3 75 4 -9 6 -10 10 -3 10 6 0 15 -4 18 -10 3 -5 13 -10 21 -10 20 0 18 63 -3
123 -19 52 -27 56 -62 27z"/>
<path d="M1635 5039 c4 -13 13 -27 19 -31 6 -5 -3 -5 -20 -2 -21 4 -34 1 -43
-10 -11 -13 -11 -16 1 -16 8 0 20 6 27 13 11 10 12 9 6 -2 -9 -16 11 -31 45
-31 19 0 21 -3 11 -9 -11 -7 -5 -11 24 -17 30 -5 40 -3 47 10 11 19 30 22 22
2 -7 -17 58 -27 100 -15 33 10 48 3 26 -12 -23 -14 7 -30 48 -26 28 3 33 0 29
-15 -4 -15 -1 -17 21 -12 21 4 24 3 12 -5 -13 -9 -13 -11 2 -11 9 0 18 6 21
13 3 8 9 6 20 -8 13 -16 18 -18 28 -7 19 18 31 15 25 -6 -7 -20 44 -48 72 -38
14 5 13 3 -2 -9 -11 -8 -15 -16 -8 -16 17 -2 23 -4 57 -18 51 -21 193 -52 253
-55 31 -1 65 -6 75 -10 18 -9 22 4 18 52 -1 14 4 22 14 22 8 0 15 5 15 10 0 6
5 10 10 10 6 0 10 -11 10 -24 0 -14 5 -28 10 -31 6 -4 8 -10 6 -14 -3 -4 1 -8
9 -8 8 0 15 7 15 16 0 13 2 13 9 3 7 -11 9 -11 14 2 4 9 4 23 1 31 -4 8 -1 15
5 15 6 0 11 5 11 10 0 21 -28 9 -34 -15 -4 -14 -13 -25 -21 -25 -18 0 -18 5
-4 32 8 16 8 22 -2 29 -11 6 -10 11 6 23 30 22 10 31 -45 20 -33 -7 -53 -7
-59 -1 -16 16 -25 -21 -10 -39 7 -9 14 -36 16 -62 l2 -46 -26 39 c-14 21 -27
53 -29 72 -2 18 -7 40 -12 49 -7 12 -12 5 -22 -30 -7 -26 -17 -49 -22 -52 -16
-10 -6 99 11 120 12 14 13 20 3 23 -8 3 -5 11 10 23 12 10 28 16 34 13 7 -2
15 0 19 6 3 6 -1 11 -11 11 -16 0 -16 1 -1 18 9 10 15 27 14 39 -1 18 -6 21
-32 16 -46 -8 -57 -12 -51 -22 3 -5 -2 -12 -11 -15 -15 -6 -15 -8 -3 -16 10
-7 11 -10 3 -10 -7 0 -13 -8 -13 -18 0 -10 -7 -27 -15 -39 -8 -12 -12 -28 -9
-37 5 -12 0 -16 -21 -16 -15 0 -24 -4 -20 -10 9 -14 -44 -32 -72 -25 -14 3
-23 13 -23 24 0 10 -7 22 -16 25 -8 3 -12 2 -9 -4 3 -6 -1 -10 -10 -10 -9 0
-14 4 -11 9 3 5 -1 12 -10 15 -12 4 -15 2 -10 -9 7 -18 -5 -20 -22 -3 -9 9
-12 9 -12 -2 -1 -9 -7 -4 -15 10 -11 19 -14 21 -15 8 0 -24 -19 -22 -42 4 -20
23 -33 18 -41 -17 -3 -16 -6 -13 -12 13 -8 34 -45 66 -45 38 0 -24 -31 -28
-47 -6 -8 11 -23 20 -33 20 -10 0 -22 5 -26 12 -5 8 -10 6 -15 -8 -6 -17 -8
-17 -17 6 -11 30 -39 56 -49 46 -3 -3 2 -16 13 -27 19 -22 19 -22 -4 -14 -13
4 -33 16 -43 26 -21 21 -45 25 -51 7 -3 -8 -11 -5 -25 8 -52 47 -56 49 -48 23z"/>
<path d="M1136 5000 c-17 -6 -17 -7 -2 -22 8 -9 35 -23 58 -31 83 -30 177 -57
198 -57 12 0 31 -5 42 -11 17 -9 24 -8 33 5 11 15 14 14 29 -9 9 -14 25 -25
36 -25 11 0 34 -9 52 -20 39 -23 147 -29 149 -7 1 6 2 21 3 32 1 11 11 24 24
30 12 5 22 13 22 17 0 8 -33 16 -65 16 -168 -1 -197 2 -242 22 -25 11 -62 20
-82 20 -20 0 -54 9 -75 21 -24 12 -48 18 -62 15 -13 -4 -41 -2 -61 2 -21 5
-47 6 -57 2z"/>
<path d="M6445 4900 c-4 -6 -10 -8 -15 -5 -5 3 -12 -1 -17 -8 -4 -7 -16 -16
-25 -20 -10 -3 -18 -14 -18 -23 0 -13 -7 -15 -40 -9 -26 4 -40 3 -40 -4 0 -19
-18 -12 -25 9 -5 16 -12 18 -38 13 -18 -3 -33 -9 -35 -13 -1 -3 -15 -5 -30 -2
-15 2 -49 -6 -75 -17 -27 -12 -58 -22 -70 -22 -18 -1 -19 -2 -4 -6 11 -3 16
-11 13 -19 -3 -8 0 -14 6 -14 7 0 6 -5 -2 -15 -10 -13 -10 -19 2 -33 26 -29
51 -91 48 -120 -4 -62 -2 -84 10 -108 17 -30 35 -32 25 -1 -12 36 -16 129 -5
122 6 -3 10 1 10 9 0 8 11 26 23 40 18 20 23 36 23 74 l-1 49 30 -19 c38 -23
53 -23 32 0 -23 25 -22 47 1 36 27 -12 123 -16 167 -6 29 6 40 13 39 26 -1 10
5 16 15 15 23 -2 34 0 50 10 11 7 10 14 -8 40 -23 32 -36 38 -46 21z"/>
<path d="M7400 4883 c-14 -8 -40 -12 -59 -9 -23 4 -57 -5 -112 -27 -125 -51
-96 -78 61 -58 61 8 96 8 115 1 37 -14 45 -6 45 44 0 53 -15 68 -50 49z"/>
<path d="M2037 4834 c-2 -3 10 -20 29 -38 19 -18 34 -39 34 -47 -1 -9 -6 -8
-16 6 -8 11 -21 20 -28 20 -7 0 -24 12 -37 27 -24 25 -26 25 -46 10 -25 -21
-45 -76 -38 -108 3 -13 7 -35 10 -48 7 -33 41 -40 67 -13 14 15 22 18 25 10 6
-18 23 -16 23 2 0 8 -5 15 -10 15 -6 0 -2 10 10 22 11 12 23 18 27 14 4 -4 1
-11 -6 -15 -11 -7 -11 -9 0 -13 11 -4 11 -11 -3 -36 -23 -39 -23 -45 2 -32 11
6 20 17 20 24 0 8 6 16 14 19 20 8 27 59 10 84 -13 20 -12 22 3 16 14 -5 12 1
-7 21 -32 35 -76 67 -83 60z"/>
<path d="M7028 4805 c-6 -6 -31 -9 -151 -19 -38 -3 -77 -10 -87 -16 -28 -15
-50 -40 -50 -57 0 -13 9 -15 48 -11 27 3 63 12 80 20 17 9 51 19 74 23 24 4
52 14 63 21 11 8 28 14 38 14 10 0 17 5 15 12 -5 14 -22 21 -30 13z"/>
<path d="M667 4583 c-4 -21 -7 -55 -7 -75 0 -34 3 -38 25 -38 15 0 25 6 25 14
0 25 144 48 165 27 6 -6 57 -12 113 -14 57 -3 109 -10 115 -16 6 -6 32 -11 57
-11 25 0 50 -4 56 -9 5 -5 29 -12 54 -15 25 -4 74 -11 110 -17 36 -6 88 -11
116 -12 36 -1 50 -6 47 -14 -3 -7 7 -15 24 -19 15 -3 36 -8 45 -11 10 -2 23
-1 30 3 7 5 26 7 43 6 l30 -3 1 55 c0 42 -4 56 -14 56 -8 0 -12 6 -8 15 4 12
-5 15 -52 16 -31 0 -66 4 -77 8 -11 5 -31 4 -44 -1 -13 -5 -28 -5 -35 0 -6 5
-18 9 -26 10 -130 3 -406 29 -422 38 -5 3 -15 1 -22 -5 -10 -8 -21 -9 -37 -1
-36 15 -138 28 -141 18 -2 -5 -19 -2 -38 6 -19 8 -56 17 -81 21 l-46 7 -6 -39z"/>
<path d="M6410 4573 c0 -4 4 -14 9 -22 5 -7 5 -25 1 -40 -4 -14 -2 -41 5 -61
7 -19 10 -41 8 -47 -7 -19 8 -16 23 5 12 16 13 16 14 0 0 -9 -4 -20 -10 -23
-14 -9 -12 -27 2 -23 21 7 37 -15 26 -36 -17 -31 10 -49 50 -34 18 7 30 18 28
24 -3 7 1 20 9 30 12 17 17 17 50 6 29 -11 49 -11 108 -1 40 6 76 16 82 21 5
4 23 8 41 8 18 0 34 6 37 14 6 14 31 14 85 -3 17 -5 32 -7 32 -3 0 4 4 13 9
21 8 12 12 12 26 -2 20 -20 73 -22 98 -3 17 13 17 15 -2 28 -12 8 -18 17 -15
21 3 3 3 15 -1 26 -5 17 -10 19 -25 11 -10 -5 -34 -9 -54 -8 -20 1 -42 -4 -48
-10 -17 -17 -31 -15 -24 4 5 13 2 15 -16 10 -33 -9 -190 -10 -210 -2 -9 4 -26
3 -37 -3 -17 -10 -20 -9 -15 4 8 20 -29 20 -46 1 -9 -11 -18 -12 -37 -5 -13 5
-28 7 -33 4 -4 -3 -10 2 -14 10 -3 8 -14 15 -25 15 -11 0 -23 5 -26 10 -3 6
-19 10 -36 10 -19 0 -29 5 -29 15 0 8 -9 19 -20 25 -11 6 -20 7 -20 3z"/>
<path d="M1941 4458 c-17 -17 -31 -38 -31 -45 0 -7 -6 -13 -12 -13 -7 0 -22
-7 -32 -15 -19 -14 -19 -15 -1 -35 14 -15 22 -17 37 -9 11 6 23 8 26 4 3 -3
-4 -8 -16 -12 -12 -3 -22 -10 -22 -15 0 -6 -7 -7 -15 -4 -8 3 -22 9 -30 12
-20 8 -19 -15 0 -36 15 -16 14 -18 -10 -22 -14 -3 -28 -1 -31 4 -3 4 -10 6
-15 3 -5 -3 -6 1 -3 9 3 9 -6 27 -22 43 -19 19 -29 24 -32 14 -2 -7 2 -17 9
-22 11 -6 10 -12 -5 -28 -21 -23 -36 -19 -36 9 0 25 -22 30 -100 25 -137 -8
-345 -17 -355 -15 -5 1 -63 4 -128 7 -81 3 -117 1 -113 -6 4 -6 2 -20 -4 -32
-16 -29 -3 -39 55 -38 28 0 82 -1 121 -1 42 -1 75 3 79 9 3 6 11 8 17 5 18
-11 108 -13 108 -1 0 5 9 2 20 -8 20 -18 21 -18 45 5 21 20 28 22 48 11 18 -9
31 -9 66 4 55 19 53 20 45 -11 -5 -18 -3 -25 3 -21 22 13 135 10 143 -4 7 -11
12 -10 28 4 11 10 36 21 56 24 31 5 36 3 36 -14 0 -12 -10 -27 -22 -35 -22
-14 -21 -15 23 -58 52 -51 87 -75 96 -66 3 3 -1 14 -10 24 -19 21 -22 42 -7
42 6 0 15 -12 21 -27 6 -16 13 -22 16 -16 5 14 -31 70 -57 90 -8 6 -11 15 -6
20 5 4 11 2 13 -4 6 -17 23 -17 23 0 0 7 9 18 20 25 11 7 20 19 20 28 0 11 -6
15 -20 11 -12 -3 -20 0 -20 8 0 8 7 11 20 8 25 -7 38 22 22 48 -7 10 -12 26
-12 34 0 14 -17 20 -47 16 -7 -1 -13 3 -13 9 0 5 9 10 20 10 13 0 20 7 20 19
0 10 7 21 15 25 19 7 20 36 1 36 -7 0 -28 -14 -45 -32z"/>
<path d="M6351 4068 c-6 -16 -5 -26 3 -33 7 -5 19 -21 26 -35 12 -22 11 -24
-2 -13 -8 7 -18 10 -22 6 -3 -4 -16 4 -27 16 -18 19 -20 27 -10 47 14 33 -1
30 -25 -3 -30 -43 -25 -55 31 -70 56 -14 87 -9 78 13 -3 7 -1 14 5 14 5 0 12
-7 16 -15 6 -17 36 -21 36 -4 0 5 4 7 10 4 6 -4 7 1 3 11 -5 13 -2 15 17 9 19
-6 22 -4 17 9 -3 8 1 22 9 31 14 13 14 15 0 15 -9 0 -16 -3 -16 -7 0 -5 -11
-13 -24 -19 -20 -9 -23 -9 -19 2 3 9 -2 14 -16 14 -14 0 -19 5 -15 15 5 12 -2
15 -30 15 -29 0 -39 -5 -45 -22z"/>
<path d="M1595 4065 c-22 -8 -62 -15 -88 -15 -27 0 -58 -5 -70 -12 -12 -6 -41
-10 -65 -9 -31 2 -44 -2 -48 -13 -8 -21 -40 -21 -48 0 -5 14 -17 15 -74 10
-101 -8 -140 -17 -153 -32 -7 -8 -9 -17 -6 -20 6 -6 174 -9 260 -4 54 3 72 12
45 23 -29 12 58 6 111 -7 49 -12 88 -14 169 -8 12 1 22 8 22 16 0 8 18 23 39
33 22 10 42 26 44 36 4 15 -2 17 -46 17 -29 -1 -70 -7 -92 -15z"/>
<path d="M7038 4062 c-21 -3 -28 -9 -28 -25 0 -18 2 -19 10 -7 14 22 12 11 -8
-45 -22 -60 -19 -81 13 -87 27 -6 45 8 45 34 0 22 4 22 33 3 20 -12 134 -20
237 -15 53 3 179 -9 197 -18 10 -5 42 -10 71 -11 30 0 63 -7 75 -16 30 -21 39
-19 35 10 -2 13 0 24 5 25 23 1 27 -2 27 -23 0 -24 17 -47 35 -47 38 0 64 153
29 167 -9 3 -20 0 -24 -7 -5 -8 -29 -14 -57 -15 -26 -1 -82 -5 -124 -10 -58
-5 -95 -3 -149 9 -40 9 -86 14 -101 11 -15 -4 -37 -1 -48 5 -16 8 -28 7 -50
-5 -37 -18 -84 -20 -78 -2 2 6 9 13 15 13 25 3 27 5 12 14 -8 5 -35 9 -60 10
-25 0 -53 1 -62 1 -9 0 -18 8 -20 17 -2 12 -11 16 -30 14z"/>
<path d="M1358 3948 c7 -7 12 -19 12 -27 -1 -13 -2 -13 -11 2 -5 9 -19 17 -29
17 -22 0 -36 -53 -26 -96 7 -28 56 -86 56 -66 0 6 9 12 20 12 22 0 36 36 25
69 -5 15 -2 21 9 21 12 0 16 -10 16 -35 0 -30 3 -35 23 -35 21 0 23 4 19 32
-6 41 -40 98 -58 98 -8 0 -14 -6 -14 -12 0 -7 -7 -2 -16 10 -8 12 -20 22 -27
22 -8 0 -8 -3 1 -12z"/>
<path d="M1684 3825 c-18 -19 -36 -35 -39 -35 -4 0 -20 -11 -36 -24 -15 -13
-49 -32 -74 -42 -39 -14 -53 -15 -98 -5 -53 11 -77 8 -172 -24 -22 -7 -67 -19
-100 -25 -116 -24 -202 -61 -189 -81 8 -14 95 -11 176 7 40 9 102 16 138 15
36 0 88 6 115 14 28 7 69 18 91 24 23 6 67 11 98 11 44 0 56 -3 56 -16 0 -8 5
-12 10 -9 6 3 19 3 31 0 19 -6 19 -8 -6 -31 -21 -20 -24 -28 -15 -39 16 -19
-14 -47 -83 -79 -42 -19 -56 -31 -59 -51 -6 -30 11 -42 39 -27 10 6 50 21 88
35 151 53 185 69 185 83 0 8 -7 17 -15 20 -8 4 -15 15 -15 25 0 11 -9 27 -20
36 -14 12 -16 20 -9 29 7 9 2 14 -21 19 -37 8 -39 23 -2 27 26 3 27 5 23 53
-1 28 -8 56 -14 64 -8 10 -7 16 4 25 24 17 11 36 -23 36 -22 0 -40 -10 -64
-35z"/>
<path d="M6314 3785 c-3 -14 -11 -25 -18 -25 -6 0 -5 -4 3 -9 7 -5 11 -13 7
-19 -3 -6 5 -27 19 -48 14 -20 25 -46 25 -58 -1 -18 -6 -15 -35 19 -19 22 -35
48 -35 58 0 19 -15 23 -25 7 -3 -5 -1 -10 5 -10 7 0 9 -7 6 -16 -3 -8 1 -25 9
-38 12 -18 13 -30 5 -52 -21 -59 -33 -74 -52 -68 -14 4 -18 0 -19 -20 -2 -38
-3 -44 -11 -52 -5 -4 -8 -11 -8 -16 0 -13 20 -9 36 7 9 8 13 15 9 15 -3 0 -2
8 4 17 7 13 20 16 58 14 26 -1 50 -7 51 -12 2 -5 13 -9 25 -9 12 0 41 -7 65
-15 32 -12 48 -13 63 -4 12 6 30 9 40 6 12 -3 19 0 19 9 0 12 4 12 21 3 12 -6
35 -13 52 -16 17 -3 40 -11 52 -19 12 -8 29 -12 38 -9 8 4 18 1 22 -5 4 -6 15
-8 25 -5 11 3 20 0 24 -10 3 -8 14 -15 25 -15 11 0 36 -9 55 -21 27 -15 49
-20 100 -18 36 1 63 6 60 11 -3 4 0 8 7 8 8 0 8 4 -1 15 -10 12 -10 15 1 15
20 1 -32 29 -53 30 -11 0 -18 -7 -18 -19 0 -11 -4 -22 -9 -25 -12 -8 -20 41
-9 52 11 11 -6 18 -67 27 -47 6 -95 24 -95 35 0 4 -26 15 -57 24 -32 10 -70
22 -85 26 -43 14 -111 -7 -105 -32 1 -7 -6 -14 -15 -16 -26 -5 -22 21 7 48 31
29 32 42 3 38 -18 -2 -23 2 -22 20 0 12 -5 22 -13 22 -7 0 -13 5 -13 10 0 6 5
10 12 10 21 0 -24 39 -52 45 -23 5 -29 12 -32 37 -3 35 -28 52 -28 19 0 -11 5
-23 10 -26 23 -14 8 -23 -22 -13 -52 17 -60 28 -53 65 7 38 -2 45 -11 8z"/>
<path d="M2116 3742 c4 -19 1 -32 -10 -41 -10 -9 -14 -22 -10 -40 4 -20 3 -22
-5 -11 -17 24 -24 3 -14 -38 6 -21 6 -48 2 -60 -10 -26 -41 -41 -47 -24 -2 7
-9 9 -15 5 -7 -4 -19 -8 -27 -10 -8 -1 -16 -7 -18 -12 -2 -6 -12 -11 -22 -11
-10 0 -21 -4 -24 -9 -3 -5 -22 -12 -41 -15 -31 -6 -35 -10 -30 -29 4 -12 3
-17 -2 -11 -12 16 -103 14 -103 -3 0 -7 -4 -14 -10 -14 -5 -1 -16 -2 -22 -3
-7 -1 -18 2 -25 6 -7 6 -21 1 -38 -14 -15 -13 -30 -23 -33 -24 -4 0 -15 -4
-25 -9 -10 -4 -20 -5 -24 -2 -3 4 -18 0 -32 -8 -15 -7 -36 -13 -46 -12 -13 1
-19 -3 -17 -13 2 -8 0 -12 -3 -8 -9 9 -105 -39 -105 -52 0 -6 -5 -10 -12 -10
-19 0 -90 -53 -81 -60 4 -4 34 -4 65 -1 36 4 62 3 68 -3 8 -8 13 -7 18 0 16
27 155 81 227 88 12 2 36 13 53 25 17 12 35 20 40 19 5 -2 22 10 37 26 15 16
30 25 33 19 13 -18 40 -22 52 -7 14 16 45 20 35 4 -11 -18 3 -11 31 15 34 31
80 33 137 4 55 -27 97 -33 97 -14 0 23 19 18 30 -7 11 -27 68 -94 74 -87 7 8
-6 69 -16 69 -5 0 -19 9 -30 20 l-22 20 34 -5 c19 -4 45 -8 58 -11 28 -6 29
12 1 19 -15 4 -20 12 -17 24 5 19 -13 43 -32 43 -5 0 -10 22 -10 51 0 46 -2
50 -20 44 -11 -4 -20 -2 -20 4 0 6 -7 11 -15 11 -8 0 -15 4 -15 9 0 5 -14 12
-31 16 -18 4 -29 12 -26 19 12 32 19 146 8 146 -6 0 -8 -11 -5 -28z"/>
<path d="M5942 3748 c-7 -7 -12 -19 -12 -27 -1 -23 -23 -48 -37 -44 -7 3 -13
0 -13 -7 0 -6 -5 -8 -12 -4 -6 4 -35 13 -62 20 -28 6 -60 15 -70 20 -15 6 -18
4 -13 -9 3 -8 1 -17 -4 -19 -7 -2 -6 -13 2 -30 14 -31 6 -58 -16 -58 -15 0
-19 18 -17 69 2 33 -13 15 -28 -34 -7 -22 -17 -45 -22 -52 -10 -13 0 -65 12
-58 4 3 10 -1 12 -8 7 -16 -2 -38 -12 -32 -4 3 -27 -14 -51 -36 -24 -23 -38
-38 -31 -35 6 4 12 2 12 -3 0 -6 -6 -11 -14 -11 -8 0 -18 -5 -22 -12 -5 -7 -2
-9 7 -6 9 4 19 -3 25 -17 9 -19 9 -22 -3 -18 -11 4 -14 0 -11 -18 3 -19 -1
-23 -27 -23 -28 -1 -59 -31 -49 -47 2 -4 -5 -27 -16 -50 -24 -53 -25 -69 -5
-69 8 0 13 6 11 13 -1 6 -1 9 1 5 3 -5 17 -8 33 -8 25 0 28 4 34 43 4 23 15
53 26 67 l19 25 -6 -37 c-4 -26 -2 -38 6 -38 23 0 51 21 52 38 0 10 3 12 6 5
2 -7 13 -13 24 -13 28 0 35 -28 13 -45 -11 -7 -16 -17 -12 -21 5 -4 16 0 26 9
11 10 22 13 31 7 10 -6 1 -15 -36 -34 -48 -24 -50 -27 -50 -65 0 -23 2 -41 5
-41 11 0 31 36 32 56 0 22 53 64 108 86 l27 11 -34 9 c-19 5 -43 7 -54 4 -15
-4 -18 0 -14 14 3 13 0 17 -9 13 -8 -3 -14 0 -14 6 0 16 43 31 55 20 5 -5 27
-9 50 -9 22 0 47 -5 55 -10 12 -8 16 -2 20 28 l5 37 25 -42 c14 -24 30 -42 35
-41 6 1 20 -3 33 -10 12 -7 22 -9 22 -5 0 4 7 -2 15 -13 13 -16 14 -16 9 -1
-4 10 -1 17 7 17 7 0 9 3 6 7 -4 3 -2 12 4 19 6 8 6 14 0 18 -5 4 -12 2 -16
-4 -11 -18 -38 -12 -31 7 4 9 1 21 -6 26 -10 6 -9 7 4 4 10 -4 18 1 21 14 6
22 -7 34 -25 23 -19 -12 -58 -11 -58 2 0 7 -11 15 -25 18 -36 9 -31 24 16 42
l40 17 -23 25 c-19 21 -20 24 -5 19 15 -6 17 -3 12 14 -4 12 -3 19 2 16 5 -3
7 10 5 28 -3 25 -9 33 -22 32 -15 -1 -18 -9 -17 -38 2 -21 -1 -35 -5 -33 -5 3
-8 -7 -8 -23 0 -27 0 -26 -19 9 -21 42 -35 112 -20 103 5 -4 9 10 9 30 0 30 6
39 39 63 35 24 71 76 71 102 0 14 -14 12 -28 -2z"/>
<path d="M6756 3692 c-3 -6 -4 -16 -1 -24 3 -8 -6 -25 -20 -38 -34 -31 -32
-40 9 -40 19 0 37 -4 40 -9 6 -9 75 -21 141 -25 22 -1 50 -7 62 -14 12 -7 35
-9 52 -6 24 5 31 3 31 -9 0 -10 16 -21 43 -29 46 -13 191 -17 202 -6 4 4 0 19
-9 34 -14 20 -23 24 -43 19 -18 -4 -29 -1 -38 12 -8 11 -29 18 -56 20 -94 6
-112 11 -161 45 -14 10 -36 18 -47 18 -12 0 -24 6 -27 14 -6 17 -45 30 -94 32
-19 1 -45 5 -56 9 -12 4 -25 2 -28 -3z"/>
<path d="M1535 3591 c-11 -4 -37 -15 -57 -24 -21 -9 -54 -17 -75 -17 -21 0
-63 -7 -93 -15 -30 -8 -89 -15 -130 -15 -41 0 -80 -4 -87 -8 -24 -15 -24 -56
-1 -102 25 -50 53 -63 63 -30 3 11 19 27 35 35 15 8 36 22 45 32 11 10 43 20
81 25 35 4 77 14 93 22 16 9 66 21 112 28 84 13 108 29 96 62 -7 17 -45 20
-82 7z"/>
<path d="M2960 3510 c14 -11 30 -20 35 -21 6 0 -1 -5 -15 -9 -22 -7 -23 -8 -4
-9 23 -1 51 -27 40 -38 -3 -3 -16 2 -27 13 -22 19 -22 19 -14 -4 6 -21 5 -23
-12 -13 -11 5 -25 17 -33 25 -13 17 -40 22 -40 7 0 -5 9 -11 19 -14 10 -2 24
-14 30 -25 9 -18 8 -21 -9 -19 -11 1 -20 5 -20 9 0 11 -43 49 -49 43 -7 -8 61
-75 77 -75 7 0 11 -4 7 -9 -5 -10 11 -25 30 -27 39 -4 75 -19 79 -33 3 -9 6
-34 8 -56 1 -22 8 -51 14 -63 11 -22 13 -22 17 -5 4 16 5 15 6 -3 0 -11 11
-29 23 -40 21 -19 21 -19 14 1 -12 31 -12 47 0 52 7 2 15 -12 18 -32 5 -27 11
-35 22 -31 9 3 18 6 20 6 2 0 4 8 4 18 0 11 -14 27 -35 38 -36 19 -59 52 -29
40 14 -5 15 -4 4 9 -8 10 -20 13 -33 9 -16 -5 -19 -3 -13 11 4 10 -1 29 -11
44 -19 29 -23 53 -9 63 6 4 -2 12 -17 19 -21 10 -24 14 -13 23 7 6 16 19 19
28 8 24 -65 88 -101 88 l-27 0 25 -20z"/>
<path d="M2577 3430 c-15 -12 -27 -16 -29 -9 -2 6 -14 8 -31 4 -32 -9 -36 -38
-9 -84 22 -39 32 -39 32 -1 0 17 5 30 11 30 5 0 8 -4 4 -9 -3 -5 -1 -12 5 -16
5 -3 10 -1 10 4 0 6 7 11 16 11 9 0 23 8 30 18 13 16 13 16 14 0 0 -10 -4 -18
-9 -18 -11 0 -28 -44 -34 -90 -3 -19 -8 -43 -12 -53 -5 -13 -3 -16 8 -11 8 3
18 1 22 -5 3 -6 -15 -24 -42 -40 -26 -16 -57 -38 -69 -50 -12 -12 -26 -21 -33
-21 -6 0 -11 -4 -11 -10 0 -5 5 -10 10 -10 6 0 10 -5 10 -11 0 -7 8 -18 17
-25 24 -17 8 -32 -17 -16 -27 16 -64 16 -54 0 5 -9 2 -8 -10 1 -27 22 -45 -2
-21 -29 18 -19 18 -20 -4 -20 -14 0 -20 -4 -15 -11 4 -8 0 -8 -15 0 -23 13
-45 6 -36 -10 7 -10 -5 -16 -49 -23 -40 -7 -58 -26 -26 -27 17 -1 20 -3 8 -6
-10 -2 -18 -8 -18 -13 0 -5 -7 -7 -15 -4 -8 4 -15 1 -15 -6 0 -6 -4 -9 -9 -6
-5 4 -18 3 -29 -1 -20 -8 -20 -9 5 -38 17 -19 28 -25 31 -17 2 6 10 12 17 12
15 0 57 52 70 85 7 18 8 17 20 -10 7 -16 11 -34 8 -38 -3 -5 4 -4 16 2 21 12
54 64 46 73 -3 3 5 4 17 3 30 -2 44 13 42 44 -1 14 1 18 3 9 5 -22 23 -24 23
-3 0 24 20 17 20 -7 1 -22 2 -21 16 5 8 15 21 27 29 27 8 0 20 9 28 20 9 13
20 18 31 14 26 -10 20 23 -9 48 -14 12 -25 26 -25 32 0 6 6 4 13 -5 15 -19 46
-33 70 -30 9 1 17 -2 17 -7 0 -5 20 -15 44 -21 25 -6 48 -16 52 -22 4 -7 0 -9
-14 -5 -11 4 -23 3 -26 -2 -8 -14 72 -30 104 -21 8 2 14 -2 13 -8 -2 -7 9 -15
25 -19 46 -10 74 -26 60 -36 -9 -5 -3 -8 15 -8 15 0 27 -5 27 -10 0 -6 8 -14
18 -17 9 -4 23 -13 31 -20 17 -18 26 -9 16 14 -5 10 -7 24 -6 31 1 6 -6 12
-16 12 -25 1 -93 39 -70 40 27 0 20 20 -8 20 -14 0 -25 -5 -25 -11 0 -8 -5 -7
-15 1 -9 7 -13 15 -10 18 3 3 -5 16 -17 29 -28 30 -6 30 27 -1 16 -15 33 -22
45 -19 12 3 22 -1 26 -11 8 -20 71 -59 83 -52 5 3 16 -6 26 -20 10 -15 22 -23
31 -20 8 3 14 1 14 -4 0 -6 -7 -10 -16 -10 -8 0 -13 -4 -9 -10 3 -5 11 -7 18
-4 7 2 28 -12 47 -32 19 -20 29 -34 23 -30 -8 4 -13 1 -13 -8 0 -16 37 -30 65
-24 15 3 14 6 -5 31 -27 34 -20 46 15 23 19 -13 25 -13 25 -3 0 13 -48 64 -56
60 -13 -8 -25 -1 -20 12 3 8 1 15 -4 15 -20 0 -9 19 12 22 20 3 19 4 -8 18
-37 19 -73 60 -74 83 0 9 -6 17 -14 17 -8 0 -19 14 -25 30 -5 17 -14 30 -18
29 -28 -5 -43 3 -43 22 0 18 3 19 15 9 8 -6 21 -10 30 -8 14 3 14 6 2 22 -13
17 -15 17 -45 2 -29 -15 -31 -19 -22 -39 11 -22 11 -22 -5 -2 -9 11 -21 19
-26 17 -5 -1 -9 2 -9 8 0 5 -7 10 -15 10 -8 0 -34 19 -57 43 -41 41 -55 67
-37 67 16 0 9 36 -10 54 -19 17 -19 17 -15 -6 5 -22 5 -22 -18 5 -28 32 -43
36 -28 6 7 -11 9 -23 6 -26 -9 -9 -25 7 -43 44 -9 20 -19 31 -21 25 -7 -22
-22 -12 -22 14 0 14 -4 23 -10 19 -6 -3 -13 1 -16 9 -8 22 -21 20 -29 -4 -3
-11 -11 -20 -16 -20 -6 0 -7 9 -4 20 8 25 4 25 -28 0z"/>
<path d="M6608 3386 c-42 -32 -9 -100 64 -131 24 -10 62 -27 85 -37 23 -10 53
-18 66 -18 13 0 85 -16 160 -35 128 -33 167 -36 167 -13 0 5 -21 18 -47 29
-86 36 -133 61 -133 71 0 4 12 8 27 10 30 3 39 30 17 49 -8 6 -29 13 -47 15
-17 2 -48 8 -67 13 -71 21 -163 41 -167 37 -2 -2 8 -6 22 -10 28 -7 33 -24 10
-32 -8 -4 -15 -15 -15 -25 0 -28 -17 -23 -35 10 -13 25 -73 82 -86 81 -2 0
-12 -7 -21 -14z"/>
<path d="M1845 3307 c-11 -6 -47 -16 -79 -22 -50 -8 -62 -15 -75 -39 -16 -28
-20 -29 -50 -18 -8 3 -28 -3 -45 -12 -17 -10 -55 -25 -85 -32 -30 -8 -60 -18
-65 -23 -6 -5 -29 -11 -52 -15 -45 -6 -130 -41 -139 -56 -4 -6 -22 -17 -41
-25 -33 -13 -43 -28 -26 -39 22 -13 182 29 202 53 11 13 102 54 137 62 55 11
133 40 133 49 0 4 18 6 40 5 40 -2 56 8 99 60 10 13 22 15 52 10 38 -7 39 -6
39 24 0 33 -12 38 -45 18z"/>
<path d="M6502 3271 c-7 -17 -12 -47 -10 -68 2 -31 7 -39 26 -41 14 -2 29 3
36 13 10 14 14 14 35 -9 14 -15 31 -26 40 -26 12 0 11 -3 -4 -13 -17 -13 -13
-43 5 -32 5 3 11 1 14 -4 11 -18 88 -52 106 -46 12 4 19 -1 23 -14 3 -13 21
-24 53 -34 27 -8 88 -33 135 -56 48 -22 93 -41 100 -41 8 0 33 -9 54 -21 47
-24 127 -50 134 -44 2 3 -2 11 -11 18 -9 6 -19 20 -24 29 -12 23 -172 128
-195 128 -10 0 -38 14 -62 30 -25 17 -53 30 -63 30 -23 0 -182 64 -197 79 -6
6 -20 11 -32 11 -20 0 -47 23 -117 103 l-33 38 -13 -30z"/>
<path d="M1964 3205 c5 -21 -2 -35 -41 -76 -71 -76 -163 -132 -163 -100 0 5
22 23 48 42 26 18 56 43 65 56 l18 23 -37 0 c-28 0 -35 3 -30 15 7 21 0 19
-24 -5 -12 -12 -25 -18 -30 -15 -5 3 -36 -5 -69 -19 -33 -13 -69 -22 -80 -19
-11 3 -57 -9 -103 -27 -46 -17 -90 -33 -98 -35 -55 -12 -71 -18 -60 -25 8 -5
5 -13 -11 -25 l-24 -17 27 6 c34 8 58 -2 51 -20 -6 -17 1 -18 28 -3 16 8 25 7
38 -5 10 -9 21 -16 26 -16 4 0 13 -7 20 -16 10 -15 17 -13 66 11 30 15 68 38
85 51 37 29 67 32 62 7 -2 -11 -12 -18 -25 -18 -12 0 -32 -9 -45 -20 -41 -35
-82 -61 -118 -74 -19 -6 -54 -31 -78 -54 -33 -32 -50 -42 -79 -43 -26 -1 -42
-8 -57 -27 -12 -14 -39 -30 -61 -36 -46 -13 -67 -24 -66 -37 0 -5 -11 -8 -24
-6 -28 4 -92 -35 -101 -62 -4 -12 0 -22 10 -28 9 -5 16 -15 16 -23 0 -8 8 -19
18 -24 25 -13 68 13 111 68 18 22 38 41 45 41 8 0 25 9 39 20 14 11 36 20 50
20 13 0 32 9 42 20 10 11 26 20 35 20 22 0 120 71 120 86 0 15 23 24 47 18 10
-3 63 18 118 46 55 27 110 50 122 50 12 0 37 6 55 14 68 28 134 48 156 47 32
-1 27 17 -16 58 -41 39 -57 67 -42 76 5 3 6 15 1 28 -5 13 -7 35 -4 50 5 23 2
27 -17 27 -19 0 -21 -4 -16 -25z"/>
<path d="M5719 3103 c-1 -5 -1 -11 0 -15 0 -5 -4 -8 -9 -8 -6 0 -10 -6 -8 -12
5 -25 -13 -68 -27 -68 -8 0 -15 5 -15 10 0 6 -4 10 -10 10 -5 0 -10 -7 -10
-15 0 -29 -28 -71 -55 -83 -24 -11 -25 -10 -15 7 14 26 13 31 -5 31 -9 0 -18
-6 -21 -14 -3 -8 -12 -12 -19 -9 -23 8 -38 -7 -24 -24 8 -9 9 -17 3 -21 -5 -4
-9 -18 -9 -31 0 -13 -6 -26 -12 -28 -7 -3 -13 2 -13 11 0 9 -4 16 -9 16 -13 0
-20 36 -10 51 5 8 9 10 9 5 0 -6 14 5 31 22 18 18 34 30 36 28 6 -6 43 26 43
38 0 5 7 18 17 28 25 27 7 35 -25 10 -15 -12 -38 -27 -52 -32 -14 -6 -30 -13
-36 -17 -6 -5 -30 -21 -53 -37 -23 -16 -44 -26 -47 -23 -9 9 25 67 39 67 15 0
62 78 53 87 -4 4 -14 -4 -24 -17 -9 -13 -29 -36 -44 -52 -16 -16 -28 -35 -28
-42 0 -7 -9 -21 -20 -31 -24 -22 -26 -8 -4 23 9 13 13 26 10 30 -11 10 -39
-12 -42 -33 -4 -26 56 -121 66 -105 5 8 9 7 13 -4 4 -9 13 -13 22 -10 18 7 20
-17 3 -35 -11 -10 -10 -14 5 -22 9 -6 17 -17 17 -24 0 -8 7 -15 15 -15 8 0 12
-6 9 -13 -2 -7 15 -34 38 -59 34 -36 52 -47 88 -52 24 -4 50 -12 57 -17 7 -6
18 -9 25 -6 9 4 6 8 -7 12 -13 4 -26 25 -38 60 -20 61 -15 107 11 97 15 -5 15
-4 3 11 -7 9 -11 23 -8 32 10 24 -9 26 -37 4 -14 -11 -26 -15 -26 -9 0 6 14
19 30 28 24 13 30 22 27 41 -6 29 2 53 13 46 4 -3 15 11 25 31 11 24 21 34 32
30 8 -3 24 -1 35 5 16 8 22 8 28 -2 6 -8 12 1 19 27 6 21 18 48 26 58 20 27
19 35 -5 33 -11 -1 -20 -5 -20 -9 0 -4 -12 -20 -26 -35 l-27 -28 8 25 c4 14
10 31 12 38 3 6 -2 12 -11 12 -9 0 -17 -3 -17 -7z"/>
<path d="M6074 3059 c-6 -8 -21 -39 -33 -69 -24 -59 -22 -76 16 -130 16 -21
16 -23 2 -18 -13 5 -16 2 -11 -14 4 -19 3 -19 -19 -8 -13 7 -21 9 -17 5 4 -5
3 -14 -3 -22 -9 -10 -8 -13 4 -13 8 0 17 -7 21 -15 8 -22 23 -18 29 6 5 18 11
20 34 15 15 -4 35 -17 44 -28 9 -12 21 -18 28 -14 11 7 14 0 15 -44 1 -19 7
-26 26 -28 14 -2 43 -22 64 -43 43 -42 74 -55 37 -15 l-23 25 22 -6 c12 -3 26
-18 31 -33 12 -32 62 -72 82 -64 8 3 17 -2 20 -10 4 -9 13 -16 20 -16 8 0 27
-12 42 -27 15 -16 49 -39 75 -53 26 -14 70 -37 96 -51 27 -15 75 -29 107 -33
53 -6 58 -5 66 16 13 33 -41 86 -99 99 -25 6 -51 20 -62 34 -20 25 -86 70 -93
63 -3 -2 4 -14 15 -25 l19 -21 -40 3 c-47 3 -59 12 -39 26 11 8 8 9 -12 5 -27
-6 -49 8 -26 17 19 7 -2 26 -32 29 -17 2 -31 15 -44 40 -21 41 -54 53 -86 31
-11 -8 -20 -10 -20 -4 0 5 5 13 10 16 6 4 8 11 5 16 -4 5 3 9 15 9 16 0 21 5
18 23 -3 19 -10 22 -53 25 -27 1 -64 9 -82 17 -17 8 -35 15 -40 15 -6 0 -18 9
-28 20 -18 20 -17 20 8 20 30 0 36 17 11 27 -13 5 -13 8 -2 15 10 7 9 12 -7
23 -38 27 -101 90 -108 109 -4 10 -2 25 4 32 6 7 9 18 7 25 -3 8 -7 7 -14 -2z"/>
<path d="M1890 2904 c-47 -20 -103 -43 -125 -52 -22 -9 -55 -27 -74 -39 -19
-13 -40 -23 -47 -23 -8 0 -14 -7 -14 -16 0 -9 -5 -13 -12 -9 -7 4 -4 -1 6 -9
24 -19 36 -20 36 -3 1 7 6 5 14 -6 16 -21 64 -14 73 10 3 8 15 19 27 24 11 5
39 21 61 35 22 13 48 27 57 30 9 3 19 12 22 19 3 8 20 21 40 30 35 17 56 45
33 45 -7 0 -50 -16 -97 -36z"/>
<path d="M2514 2903 c4 -27 3 -31 -12 -26 -9 3 -22 10 -29 15 -9 7 -11 1 -6
-25 6 -42 -18 -93 -52 -109 -14 -6 -34 -31 -46 -55 -19 -40 -39 -57 -39 -33 0
21 -24 8 -65 -35 -24 -24 -56 -47 -71 -51 l-29 -7 28 33 c32 37 32 66 0 87
-19 13 -23 12 -40 -7 -10 -12 -33 -36 -52 -53 -18 -18 -52 -50 -75 -73 -22
-22 -57 -51 -78 -63 -37 -22 -108 -94 -108 -110 0 -5 -14 -14 -32 -20 -18 -6
-48 -28 -68 -49 -19 -21 -48 -46 -65 -56 -16 -10 -42 -30 -57 -44 -15 -14 -39
-24 -55 -24 -15 0 -33 -4 -39 -9 -6 -5 -28 -12 -50 -17 -29 -6 -40 -13 -42
-30 -4 -24 16 -30 36 -10 9 9 12 9 12 1 0 -7 -4 -15 -10 -18 -19 -12 -10 -37
25 -72 39 -39 53 -36 81 20 l15 29 42 -41 c43 -43 64 -53 48 -23 -18 33 -70
75 -85 69 -18 -7 -30 25 -24 64 2 20 15 28 78 48 41 13 80 30 85 36 6 7 28 21
50 31 22 10 62 40 89 67 27 27 63 56 80 63 17 7 51 34 76 59 62 63 113 97 133
89 25 -9 21 -34 -6 -34 -25 0 -142 -102 -130 -114 13 -12 -31 -48 -54 -43 -13
2 -28 -2 -34 -9 -9 -11 -8 -14 5 -14 9 0 16 -5 16 -11 0 -7 -11 -9 -27 -5 -16
3 -22 3 -15 0 21 -9 13 -21 -17 -27 -15 -3 -39 -15 -52 -26 -13 -11 -34 -29
-47 -38 -21 -17 -21 -20 -7 -40 13 -19 18 -20 47 -10 17 7 60 40 95 75 35 34
68 62 73 62 6 0 10 6 10 13 0 9 2 9 9 -1 6 -11 16 -6 40 20 17 18 31 37 31 42
0 5 7 3 15 -4 12 -10 17 -8 27 17 7 16 18 28 25 26 6 -2 22 10 34 26 13 17 31
31 41 31 9 0 33 14 51 30 19 17 41 30 49 30 22 0 59 30 69 58 7 19 12 23 18
14 6 -10 18 -6 49 14 23 15 42 32 42 37 0 5 11 6 24 3 18 -4 28 -1 34 11 9 15
13 13 37 -15 16 -19 40 -34 61 -38 38 -7 84 2 84 16 0 14 -27 13 -32 -1 -3 -8
-17 -5 -43 9 -22 12 -49 24 -60 28 -19 7 -19 8 1 11 12 2 39 -3 60 -12 43 -18
54 -13 31 13 -10 10 -17 26 -17 35 0 9 -5 19 -10 22 -7 4 -9 -2 -4 -19 4 -16
2 -26 -5 -26 -6 0 -11 12 -11 26 0 47 -44 103 -81 104 -16 0 -55 36 -53 49 1
3 -5 15 -13 26 -14 19 -15 18 -9 -12z"/>
<path d="M3847 2843 c-4 -3 5 -14 18 -25 14 -11 25 -25 25 -32 0 -7 9 -22 20
-34 l21 -22 -21 0 c-12 0 -18 5 -15 10 3 6 0 10 -9 10 -8 0 -27 7 -43 17 -27
15 -32 15 -61 0 -18 -9 -41 -14 -52 -12 -15 3 -11 -5 16 -31 20 -18 43 -34 50
-34 8 0 14 -5 14 -11 0 -5 -5 -7 -11 -3 -6 3 -39 8 -73 9 -47 2 -55 0 -36 -7
20 -7 22 -11 10 -19 -13 -8 -12 -12 5 -25 11 -8 26 -19 34 -23 13 -8 18 -26
20 -73 1 -24 73 -70 113 -73 40 -3 46 -18 18 -47 l-21 -23 -5 22 c-3 12 -23
28 -47 39 -23 10 -48 24 -55 31 -7 7 -17 13 -22 13 -5 0 -16 13 -25 30 -14 27
-14 29 2 23 16 -6 16 -4 -1 15 -11 12 -29 22 -41 22 -23 0 -99 -29 -80 -30 6
0 1 -7 -9 -15 -19 -15 -19 -15 2 -15 14 0 22 6 22 16 0 11 5 14 16 10 9 -3 20
-6 25 -6 5 0 9 -7 9 -15 0 -8 7 -15 16 -15 10 0 14 5 10 16 -3 9 -2 12 4 9 6
-4 10 -12 9 -18 -3 -28 2 -37 21 -37 12 0 34 -9 49 -21 30 -22 32 -38 16 -143
l-8 -48 24 13 c13 7 29 14 34 14 6 0 9 10 7 23 -2 12 2 22 7 22 10 0 15 -14
12 -32 0 -5 3 -8 9 -8 16 0 12 -47 -5 -54 -24 -9 -17 -25 8 -18 20 5 21 4 8
-11 -7 -9 -20 -17 -27 -17 -8 0 -14 -4 -14 -10 0 -5 4 -10 9 -10 6 0 13 5 16
10 3 6 11 10 16 10 6 0 3 -10 -5 -22 -22 -31 -20 -34 14 -47 17 -5 30 -15 30
-20 0 -15 27 -3 27 12 0 7 4 24 8 39 5 21 3 29 -9 34 -9 3 -16 11 -16 16 0 6
7 8 15 4 9 -3 15 0 15 8 0 8 -8 17 -17 20 -11 5 -13 10 -7 14 13 9 24 62 13
62 -4 0 0 13 9 30 9 16 22 30 27 30 6 0 22 8 35 17 14 10 32 18 40 18 10 0 14
9 13 28 -1 23 2 27 25 28 24 2 24 2 5 6 -25 5 -30 18 -12 29 8 5 6 10 -5 16
-21 12 -46 -6 -46 -33 0 -11 -4 -19 -10 -19 -5 0 -10 12 -10 26 0 16 -5 24
-12 21 -7 -2 -12 -9 -11 -15 1 -5 -4 -13 -12 -16 -19 -7 -19 -2 0 35 17 32 15
31 148 13 39 -5 47 -4 47 9 0 8 3 22 6 31 4 10 1 16 -9 16 -9 0 -23 7 -31 16
-10 10 -24 13 -37 9 -19 -6 -21 -4 -16 14 5 20 3 22 -24 16 -18 -4 -29 -3 -29
5 0 7 -6 8 -19 0 -25 -13 -61 -13 -61 0 0 5 8 6 17 3 12 -5 15 -2 10 10 -4 11
-1 17 8 17 22 0 18 16 -7 28 l-23 11 25 1 25 1 -28 15 c-16 9 -36 13 -45 9 -9
-3 -13 -3 -9 1 4 4 -2 14 -13 21 -15 11 -18 21 -14 40 5 18 3 24 -4 19 -7 -4
-20 -2 -30 3 -11 6 -22 8 -25 4z"/>
<path d="M5027 2813 c5 -13 2 -15 -12 -10 -20 8 -58 -1 -51 -12 10 -16 -14
-35 -49 -37 -28 -3 -36 0 -32 10 8 21 -65 27 -79 7 -10 -12 -16 -13 -35 -4
-21 10 -22 12 -4 12 30 1 3 21 -32 24 -17 1 -29 5 -26 10 5 8 -9 9 -31 1 -8
-3 -12 -12 -9 -20 3 -8 0 -14 -6 -14 -6 0 -11 4 -11 9 0 4 -11 6 -25 4 -13 -3
-24 -8 -23 -12 2 -20 -4 -31 -19 -31 -14 0 -15 -2 -4 -12 10 -11 15 -10 24 2
8 10 29 15 64 15 60 -1 76 -9 38 -19 -18 -5 -25 -12 -21 -22 9 -23 -19 -28
-55 -10 -22 11 -36 13 -43 6 -5 -5 -7 -11 -3 -11 4 -1 12 -3 17 -4 6 -1 19 -3
30 -4 29 -2 24 -20 -7 -27 -16 -3 -36 -8 -45 -11 -12 -3 -18 1 -18 12 0 12 -4
14 -19 5 -27 -14 -34 -13 -27 5 3 9 0 15 -9 15 -8 0 -15 7 -15 16 0 11 6 14
20 9 14 -4 20 -2 20 8 0 23 -44 9 -57 -18 -8 -19 -8 -27 2 -35 19 -16 27 -53
10 -46 -8 3 -26 -4 -40 -16 -21 -16 -29 -18 -38 -8 -9 9 -8 15 7 24 10 6 28
19 40 29 21 17 21 17 -9 11 -28 -5 -29 -4 -11 10 10 8 15 19 12 24 -10 17 -44
21 -50 6 -3 -8 -15 -14 -26 -14 -33 0 -23 -18 13 -22 l32 -3 -23 -23 c-23 -23
-23 -25 -6 -43 9 -10 25 -19 36 -19 10 0 18 -5 18 -11 0 -6 -7 -9 -15 -6 -8 4
-17 1 -21 -5 -5 -7 -10 -3 -15 10 -9 23 -33 29 -44 11 -4 -6 2 -13 14 -16 12
-3 21 -9 21 -13 0 -8 45 -30 62 -30 7 0 6 5 -2 15 -10 12 -9 15 6 15 11 0 25
-9 32 -20 14 -22 38 -26 45 -7 4 10 7 10 18 0 11 -11 10 -13 -4 -13 -9 0 -17
-4 -17 -10 0 -5 10 -10 23 -10 12 0 33 -7 45 -16 13 -9 29 -13 37 -10 10 3 12
0 8 -12 -6 -15 -5 -15 10 -3 16 13 16 15 -3 28 -21 15 -18 39 3 26 7 -4 24 -6
39 -4 20 2 28 -2 28 -13 0 -18 27 -21 49 -7 13 8 13 12 1 28 -14 17 -14 17 6
1 26 -22 34 -23 34 -2 0 14 2 15 17 3 15 -13 16 -12 11 9 -4 15 -2 25 8 29 8
3 14 11 14 19 0 26 45 83 70 90 38 11 39 11 50 13 6 0 10 8 10 17 0 12 -6 15
-24 10 -14 -3 -27 -2 -31 3 -8 14 33 34 56 28 11 -3 26 1 33 9 8 8 21 14 28
14 19 1 48 25 48 41 -1 10 -4 9 -11 -3 -10 -18 -59 -25 -59 -9 0 14 28 33 39
26 7 -3 8 0 5 9 -3 9 -15 16 -25 16 -13 0 -17 -5 -12 -17z"/>
<path d="M6579 2766 c13 -14 37 -30 54 -37 18 -7 46 -23 63 -35 18 -13 51 -30
75 -38 24 -9 45 -20 47 -26 6 -17 49 -54 94 -81 62 -37 200 -147 217 -172 30
-45 60 -70 75 -64 25 10 76 88 76 116 -1 24 -8 29 -83 55 -45 15 -100 29 -122
31 -30 2 -41 7 -43 21 -4 18 -57 65 -174 152 -32 23 -62 42 -67 42 -5 0 -19
11 -32 25 -24 25 -49 33 -49 16 0 -5 -16 -15 -35 -21 -36 -12 -60 -5 -85 24
-7 9 -17 16 -23 16 -6 0 0 -11 12 -24z"/>
<path d="M3315 2593 c-14 -16 -29 -40 -32 -55 -3 -16 -10 -25 -18 -22 -19 8
-26 -23 -8 -38 9 -7 30 -13 47 -14 106 -3 107 -4 104 -21 -2 -10 3 -18 10 -17
36 3 42 5 42 14 0 6 -11 16 -25 22 -14 6 -25 14 -25 18 0 14 42 19 61 7 10 -6
21 -8 25 -5 10 10 -6 28 -34 40 l-27 11 25 6 c18 5 21 9 12 15 -7 4 -17 19
-22 32 -10 24 -30 33 -30 13 0 -5 -10 -3 -22 5 -32 23 -54 20 -83 -11z"/>
<path d="M6102 2574 c-14 -16 -20 -33 -17 -44 4 -12 -1 -22 -12 -29 -16 -9
-15 -10 9 -11 37 0 44 -16 11 -27 l-28 -10 40 -25 c22 -14 47 -33 55 -43 8
-10 48 -44 90 -75 41 -32 82 -66 91 -76 26 -31 132 -129 157 -146 12 -8 35
-31 50 -51 35 -46 119 -112 155 -120 20 -6 27 -13 27 -33 0 -34 35 -101 61
-114 18 -10 26 -6 60 30 41 43 50 70 24 70 -24 0 -61 27 -134 99 -37 36 -95
92 -129 124 -34 32 -62 64 -62 72 0 7 -24 35 -54 62 -29 27 -59 60 -66 73 -17
33 -29 40 -67 40 -22 0 -36 6 -43 20 -6 11 -21 31 -35 45 -13 15 -27 39 -30
55 -3 16 -22 40 -41 55 -19 14 -34 33 -34 42 0 9 -5 13 -15 9 -46 -19 -51 -19
-31 -4 10 8 16 20 12 26 -10 17 -18 15 -44 -14z"/>
<path d="M2398 2530 c-16 -9 -25 -19 -22 -22 3 -4 -32 -44 -78 -91 -120 -123
-177 -186 -188 -208 -6 -10 -17 -19 -25 -19 -19 0 -105 -59 -105 -72 0 -5 -11
-19 -25 -29 -25 -21 -113 -131 -122 -155 -7 -19 17 -17 48 4 101 66 139 96
139 110 1 16 61 62 81 62 5 0 12 13 15 30 4 19 18 37 39 50 17 11 49 39 71 63
21 25 53 51 69 60 17 8 41 27 54 41 14 14 29 26 35 26 5 0 20 10 33 22 16 15
37 22 65 23 39 1 70 25 33 25 -24 0 -79 48 -85 75 -5 21 -6 21 -32 5z"/>
<path d="M5720 2450 c0 -5 6 -10 13 -10 7 -1 5 -6 -6 -14 -9 -7 -28 -11 -42
-8 -15 2 -25 0 -25 -7 0 -6 5 -11 11 -11 5 0 8 -4 5 -8 -2 -4 -1 -14 5 -22 7
-13 9 -12 9 3 0 21 2 21 41 -2 30 -19 31 -19 8 -26 l-22 -7 23 -13 c13 -7 31
-11 39 -8 14 4 14 3 1 -9 -21 -19 -14 -68 10 -68 12 0 17 -5 14 -13 -5 -13 20
-44 54 -69 10 -7 25 -26 34 -43 8 -16 20 -29 26 -28 7 2 12 -6 12 -16 0 -11 5
-23 12 -27 8 -5 9 0 6 14 -7 24 13 41 41 37 9 -1 10 0 4 2 -7 3 -13 9 -13 15
0 5 -7 8 -14 5 -10 -4 -13 -1 -10 8 3 8 13 15 22 17 14 3 14 6 -6 26 -12 12
-22 24 -22 27 0 3 -10 19 -22 35 -23 32 -46 38 -66 18 -10 -10 -15 -10 -22 2
-12 19 -6 36 11 32 8 -2 4 6 -9 18 -18 17 -21 25 -11 36 9 11 8 14 -3 14 -8 0
-19 -5 -25 -11 -14 -14 -36 -1 -29 17 3 9 -1 14 -14 14 -10 0 -21 4 -25 9 -9
15 33 33 57 25 14 -4 18 -2 14 5 -4 6 -15 11 -24 11 -10 0 -23 9 -30 20 -13
21 -32 27 -32 10z"/>
<path d="M5983 2383 c-7 -2 -13 -11 -13 -18 0 -7 -17 -26 -37 -43 l-37 -29 25
-19 c13 -10 69 -65 124 -121 55 -56 119 -111 142 -122 38 -19 44 -27 58 -76
12 -41 26 -62 55 -85 40 -32 60 -38 60 -17 0 34 -131 253 -182 304 -119 120
-146 153 -141 171 10 40 -19 70 -54 55z"/>
<path d="M4262 2362 c-9 -3 -10 -8 -2 -17 8 -10 4 -14 -15 -19 -14 -4 -25 -13
-25 -20 0 -8 -7 -16 -15 -20 -19 -7 -19 -37 0 -62 12 -15 16 -16 24 -5 7 11
11 10 20 -6 9 -18 7 -21 -19 -27 -17 -3 -30 -10 -30 -16 0 -6 5 -8 12 -3 7 4
25 6 40 4 16 -1 28 2 28 9 0 6 5 8 10 5 6 -3 10 -1 10 6 0 10 3 10 12 1 13
-13 54 -16 60 -4 2 4 20 20 41 36 35 25 44 28 90 23 35 -4 45 -3 32 3 -11 5
-16 9 -12 9 17 2 -20 28 -46 33 -20 4 -30 0 -38 -13 -12 -24 -42 -14 -34 12 4
11 2 19 -5 19 -7 0 -14 -9 -17 -20 l-6 -21 -19 21 c-13 13 -32 20 -61 21 l-42
1 33 9 c17 5 32 11 32 13 0 10 -47 32 -58 28z"/>
<path d="M2598 2342 c-30 -4 -70 -51 -73 -86 -1 -13 -8 -20 -17 -18 -16 2 -68
-51 -68 -70 0 -6 -11 -25 -24 -43 -24 -31 -30 -47 -27 -72 3 -30 71 -1 71 29
0 8 17 26 37 39 26 17 43 38 54 69 13 36 22 46 43 48 27 3 66 48 66 76 0 20
-28 33 -62 28z"/>
<path d="M5095 2340 c-17 -7 -16 -9 10 -10 l30 0 -25 -19 c-13 -11 -28 -17
-32 -15 -6 4 -86 -23 -98 -33 -3 -3 3 -9 13 -14 9 -6 17 -21 17 -34 0 -27 -7
-30 -29 -16 -8 5 -21 5 -30 1 -9 -5 -25 -12 -36 -16 -17 -7 -15 -9 13 -12 27
-3 36 -10 47 -36 16 -39 31 -52 68 -61 22 -6 27 -12 26 -39 0 -26 -2 -28 -9
-11 -8 18 -9 18 -9 2 -1 -11 8 -30 19 -44 15 -19 17 -29 10 -39 -7 -7 -7 -15
-2 -18 6 -3 12 3 15 15 5 17 8 18 26 8 15 -10 17 -17 10 -31 -8 -14 3 -10 40
14 48 32 49 34 30 50 -10 9 -19 21 -19 27 0 7 -7 22 -15 35 -18 27 -29 92 -18
109 10 16 3 100 -9 115 -8 9 -8 20 1 38 6 14 11 29 11 34 0 12 -28 12 -55 0z"/>
<path d="M5605 2320 c-21 -16 -41 -30 -45 -30 -4 0 -11 -8 -14 -17 -8 -19 12
-35 36 -29 9 2 25 -2 35 -10 16 -12 16 -15 3 -23 -13 -9 -13 -12 0 -23 9 -7
38 -46 65 -86 27 -41 52 -75 56 -78 4 -2 6 21 5 52 -2 55 -1 55 16 34 13 -17
17 -33 13 -66 -9 -68 25 -115 40 -56 3 15 14 35 22 44 14 16 14 20 -1 42 -10
16 -12 27 -5 31 6 5 6 12 -3 22 -7 9 -12 19 -10 22 5 12 -28 41 -48 41 -11 0
-21 6 -22 13 0 6 -2 17 -2 22 -2 18 -81 124 -92 125 -6 0 -28 -13 -49 -30z"/>
<path d="M2895 2313 c4 -10 9 -28 10 -39 2 -12 8 -31 14 -42 9 -17 8 -23 -6
-31 -17 -10 -17 -10 0 -11 26 0 21 -15 -10 -30 -23 -11 -25 -14 -10 -18 11 -2
16 -10 13 -18 -7 -19 36 -29 63 -14 12 6 21 20 21 30 0 12 7 20 18 20 14 0 15
2 2 10 -11 7 -2 10 31 10 31 0 49 5 52 14 9 22 -4 59 -27 78 -20 17 -20 19 -3
32 16 13 15 14 -15 19 -33 5 -54 -2 -30 -10 6 -3 9 -9 6 -14 -3 -6 -11 -5 -20
2 -8 6 -17 9 -20 6 -3 -3 4 -10 15 -17 21 -11 29 -40 11 -40 -5 0 -19 9 -30
20 -25 25 -36 25 -49 3 -9 -16 -10 -16 -11 5 0 15 6 22 20 22 11 0 20 4 20 9
0 6 -9 8 -20 6 -11 -2 -22 0 -25 6 -11 17 -27 10 -20 -8z"/>
<path d="M2749 2159 c-8 -13 -20 -33 -27 -44 -7 -11 -19 -35 -27 -52 -9 -18
-19 -33 -23 -33 -5 0 -37 -44 -71 -97 -35 -54 -72 -109 -82 -123 -23 -31 -81
-136 -93 -170 -5 -14 -17 -37 -27 -51 -19 -27 -35 -79 -25 -79 4 0 24 11 46
25 46 29 75 68 66 90 -10 27 12 63 58 95 25 17 46 34 46 38 0 5 23 32 51 62
27 30 64 83 80 116 17 34 44 74 60 90 21 20 27 33 23 51 -4 14 -2 23 5 23 19
0 12 18 -18 52 l-28 32 -14 -25z"/>
<path d="M4092 2090 c10 -6 43 -14 75 -19 32 -5 49 -9 39 -10 -20 -1 -14 -15
7 -17 31 -3 55 -18 65 -38 11 -25 5 -40 -18 -49 -12 -4 -11 -6 3 -6 12 -1 17
-10 17 -33 0 -57 9 -76 33 -71 l22 4 -22 -16 c-18 -14 -20 -21 -12 -39 7 -15
7 -31 -2 -51 -35 -84 -26 -363 17 -522 1 -6 12 -9 23 -6 12 3 21 1 21 -6 0 -6
-7 -11 -15 -11 -8 0 -15 -5 -15 -11 0 -5 5 -7 10 -4 6 3 10 1 10 -4 0 -6 -5
-11 -11 -11 -5 0 -7 -4 -4 -10 10 -16 23 -12 30 9 3 11 15 23 26 26 15 5 18
12 13 23 -4 10 -7 29 -6 44 1 15 -5 29 -14 32 -10 4 -13 13 -9 26 3 11 3 20
-2 20 -4 0 -8 23 -8 50 0 32 4 49 11 46 7 -3 10 17 8 57 -3 48 -8 66 -24 79
-22 18 -13 32 14 22 26 -10 19 29 -9 56 -30 29 -33 45 -4 30 11 -7 23 -9 26
-7 9 10 11 177 2 183 -16 10 -10 62 8 73 13 7 18 22 18 61 0 44 2 50 18 46 13
-3 17 0 13 11 -3 8 -6 17 -6 19 0 2 -17 4 -37 4 -36 -1 -37 -2 -19 -15 25 -19
8 -19 -49 0 -25 9 -49 14 -54 11 -5 -3 -21 1 -37 9 -36 17 -178 32 -152 15z"/>
<path d="M5554 2076 c-6 -25 -14 -30 -41 -27 -7 1 -20 -10 -29 -24 -9 -14 -25
-25 -35 -25 -24 0 -24 -11 1 -60 13 -25 28 -40 42 -42 17 -2 24 -12 29 -38 8
-44 65 -160 79 -160 5 0 10 -10 10 -22 0 -31 25 -67 88 -127 31 -30 52 -58 52
-71 0 -12 10 -35 23 -50 12 -16 30 -40 40 -54 31 -44 63 -26 38 22 -5 9 -14
29 -20 45 -6 15 -21 31 -34 36 -24 9 -37 44 -37 97 0 13 -12 35 -27 49 -15 14
-22 25 -15 25 18 0 15 24 -6 51 -11 13 -24 39 -30 57 -6 18 -20 46 -32 61 -11
16 -20 37 -20 48 0 10 -17 50 -38 88 -33 61 -37 75 -30 104 5 18 7 35 4 38 -3
3 -8 -6 -12 -21z"/>
<path d="M3532 2065 c-7 -8 -8 -15 -3 -15 6 0 18 -11 27 -25 15 -22 14 -26 -3
-55 -14 -24 -15 -33 -5 -39 7 -4 10 -15 6 -24 -3 -10 -1 -17 5 -17 18 0 13
-36 -10 -77 -13 -24 -17 -39 -10 -41 6 -2 11 -11 11 -19 0 -11 -7 -14 -23 -9
-19 4 -25 0 -34 -24 -7 -19 -8 -30 -2 -30 6 0 7 -5 4 -10 -3 -6 -7 -28 -7 -50
0 -24 -6 -44 -15 -48 -8 -5 -19 -28 -24 -53 -6 -24 -22 -57 -37 -73 -18 -19
-23 -30 -15 -33 8 -3 11 -14 7 -29 -4 -14 -1 -31 6 -39 9 -11 9 -15 1 -16 -6
-1 -17 -2 -23 -3 -7 -1 -12 -13 -11 -26 1 -14 -2 -47 -7 -75 -5 -33 -5 -52 2
-57 7 -4 2 -15 -13 -30 -13 -12 -33 -40 -43 -60 -10 -21 -34 -47 -53 -58 -33
-19 -43 -43 -22 -55 6 -4 19 2 30 14 20 21 39 28 39 13 0 -4 -5 -13 -11 -19
-8 -8 -6 -12 7 -16 11 -3 40 -10 67 -17 26 -7 47 -17 47 -22 0 -5 4 -6 10 -3
6 4 6 13 1 23 -5 9 -14 28 -20 42 -9 21 -10 21 -5 3 3 -13 2 -23 -3 -23 -4 0
-15 30 -25 67 -15 63 -15 68 1 83 9 8 15 23 13 33 -2 10 2 25 8 33 8 8 10 27
6 45 -5 25 -3 30 8 26 16 -6 34 37 42 96 7 50 11 71 17 87 3 8 7 26 9 40 2 17
8 24 20 22 12 -2 15 3 11 18 -3 11 -1 20 5 20 20 0 21 43 1 72 -17 23 -18 28
-5 28 8 0 18 -5 21 -10 4 -6 11 -8 16 -4 6 4 6 11 -2 20 -9 11 -8 19 6 34 14
16 16 23 7 32 -18 18 -15 28 14 38 14 6 22 14 19 20 -3 5 -1 10 4 10 6 0 10
10 8 21 -1 12 4 24 11 26 7 3 12 -4 12 -19 0 -16 3 -19 9 -10 4 7 6 24 3 37
-3 17 8 42 33 80 38 58 55 68 34 21 -7 -14 -9 -29 -6 -32 9 -10 39 17 34 31
-3 6 1 19 9 30 20 27 17 53 -7 65 -26 14 -51 6 -43 -15 4 -10 0 -15 -15 -15
-22 0 -29 16 -10 22 9 3 8 10 -2 25 -15 25 -74 30 -65 6 8 -19 -8 -16 -29 7
-21 24 -26 24 -43 5z"/>
<path d="M2829 1999 c-24 -28 -43 -54 -42 -59 2 -5 -4 -7 -12 -4 -17 7 -20 -7
-4 -23 16 -16 -7 -53 -34 -53 -12 0 -29 -5 -37 -10 -13 -8 -11 -11 8 -16 31
-9 28 -20 -8 -27 -23 -5 -30 -12 -29 -29 0 -13 3 -18 5 -13 2 6 22 9 44 7 22
-2 41 0 41 4 1 5 3 18 4 29 1 12 10 37 19 57 10 21 14 43 10 50 -4 7 2 5 13
-5 27 -23 36 -9 27 39 -5 29 -4 36 7 32 8 -3 19 -15 26 -28 l12 -24 6 27 c4
15 5 34 2 42 -4 8 -2 17 3 20 14 9 12 22 -3 28 -8 3 -33 -16 -58 -44z"/>
<path d="M5852 1981 c-23 -14 -5 -113 27 -148 14 -16 43 -48 64 -72 21 -23 42
-39 48 -36 12 8 50 -36 44 -52 -5 -15 45 -73 62 -73 22 0 15 59 -14 108 -27
48 -97 122 -115 122 -5 0 -7 9 -3 19 3 11 1 22 -5 26 -5 3 -10 1 -10 -4 0 -6
-4 -11 -8 -11 -5 0 -9 13 -9 29 0 17 -12 45 -27 65 -29 38 -33 41 -54 27z"/>
<path d="M5300 1945 c-7 -8 -19 -15 -26 -15 -22 0 -16 -29 16 -87 17 -29 30
-60 30 -68 0 -8 16 -33 36 -55 25 -27 34 -45 29 -59 -6 -21 58 -149 80 -157 7
-3 10 -16 7 -30 -3 -16 5 -38 22 -64 32 -48 56 -53 56 -10 0 41 -20 80 -42 80
-15 0 -16 3 -7 18 8 13 7 27 -5 56 -9 21 -16 45 -16 52 0 8 -13 43 -30 77 -16
35 -30 70 -30 78 0 8 -4 19 -10 25 -5 5 -16 40 -24 78 -8 37 -18 72 -22 76
-19 17 -51 20 -64 5z"/>
<path d="M4897 1916 c12 -62 54 -147 91 -181 20 -19 39 -35 42 -35 12 0 9 53
-5 80 -16 30 -12 103 6 126 12 14 1 24 -27 24 -13 0 -26 4 -29 10 -3 5 -24 9
-45 8 -38 -1 -39 -2 -33 -32z"/>
<path d="M3201 1875 c-11 -36 -21 -74 -21 -86 0 -11 -6 -30 -14 -42 -8 -12
-16 -31 -18 -42 -2 -11 -9 -26 -17 -34 -9 -10 -12 -29 -8 -57 3 -28 0 -44 -8
-48 -6 -2 -18 -25 -25 -50 -7 -26 -17 -49 -21 -52 -5 -3 -9 -21 -9 -40 0 -23
-12 -51 -35 -85 -19 -28 -35 -57 -35 -64 0 -7 -25 -43 -55 -80 -35 -44 -52
-72 -47 -81 9 -16 97 -64 118 -64 7 0 14 8 15 18 0 9 2 24 4 32 1 8 8 51 15
95 16 109 38 186 62 211 14 15 17 29 12 48 -5 20 -2 26 10 26 16 0 51 61 85
150 21 54 19 75 -5 84 -9 3 -12 11 -9 17 4 6 13 8 20 5 14 -5 65 29 65 43 0 5
-11 6 -25 3 -35 -6 -44 23 -15 48 27 23 32 24 47 9 12 -12 44 26 37 45 -5 12
-77 56 -92 56 -5 0 -19 -29 -31 -65z"/>
<path d="M5161 1896 c-16 -19 -10 -144 6 -150 8 -4 11 -16 7 -35 -5 -22 -1
-34 14 -47 16 -13 19 -25 15 -51 -5 -28 -3 -32 11 -27 13 5 16 -1 16 -36 0
-38 2 -41 16 -29 9 8 24 14 33 14 26 0 26 44 0 53 l-23 9 22 5 c30 8 28 43 -3
70 -16 14 -23 28 -20 39 4 11 -2 23 -16 33 -20 13 -20 16 -6 22 21 8 14 42
-20 102 -26 45 -34 50 -52 28z"/>
<path d="M3410 1865 c0 -8 -9 -24 -20 -35 -15 -15 -20 -33 -20 -77 0 -60 -45
-225 -79 -293 -10 -19 -21 -53 -25 -75 -4 -22 -20 -80 -35 -130 -54 -169 -65
-210 -65 -235 -1 -14 -10 -39 -21 -54 -33 -46 -63 -110 -58 -123 7 -17 59 -36
81 -29 12 4 26 0 35 -9 25 -25 37 -17 37 24 0 44 -13 59 -35 41 -13 -10 -15
-8 -15 13 0 19 4 25 15 21 17 -7 21 21 5 31 -19 12 -10 52 28 126 21 41 57
133 79 204 92 294 104 337 114 392 6 32 20 81 30 108 24 64 24 92 0 105 -28
15 -51 12 -51 -5z"/>
<path d="M4200 1795 c-7 -8 -18 -15 -25 -15 -7 0 -15 -9 -18 -20 -3 -11 -1
-20 5 -20 6 0 7 -11 4 -25 -5 -18 -2 -25 9 -25 8 0 15 -4 15 -10 0 -16 -30
-12 -36 5 -6 16 -44 21 -44 7 0 -5 11 -19 25 -32 16 -15 22 -27 16 -33 -12
-12 -30 0 -41 27 -7 17 -9 17 -9 4 -1 -22 -18 -24 -23 -2 -3 16 -67 44 -101
44 -15 0 -16 -3 -7 -21 9 -17 8 -23 -7 -36 -16 -13 -16 -14 0 -9 18 6 24 -9 7
-19 -6 -4 -10 -28 -9 -53 0 -26 -6 -127 -15 -226 -18 -189 -13 -258 16 -264
23 -4 41 34 44 93 2 28 8 75 13 105 6 30 15 82 20 115 12 83 40 207 51 225 16
26 32 -5 37 -72 3 -35 9 -64 14 -66 5 -2 9 -8 9 -13 0 -6 -4 -7 -10 -4 -16 10
-12 -157 4 -196 12 -29 12 -37 0 -61 -18 -35 -20 -170 -4 -228 8 -25 14 -51
14 -57 2 -28 20 -16 33 22 9 24 16 93 18 176 2 78 8 146 15 158 6 12 8 35 5
51 -3 16 -1 39 5 51 9 17 9 27 -1 45 -10 20 -10 29 1 48 7 14 10 31 7 40 -3 8
1 20 9 26 19 17 19 80 0 80 -23 0 -29 19 -12 36 18 17 18 17 19 99 0 53 -2 60
-20 63 -11 2 -26 -4 -33 -13z"/>
<path d="M4540 1760 c-12 -8 -11 -12 7 -32 16 -17 19 -28 13 -38 -19 -29 -12
-115 12 -145 14 -19 21 -40 20 -62 -4 -47 32 -126 55 -121 37 7 11 245 -32
298 -18 23 -25 49 -15 55 16 10 12 42 -6 49 -22 8 -36 7 -54 -4z"/>
<path d="M4723 1751 c-20 -16 -20 -21 -8 -37 8 -11 15 -26 15 -34 0 -8 7 -28
15 -44 9 -16 13 -36 10 -45 -8 -22 14 -118 31 -132 9 -7 11 -16 5 -23 -15 -18
22 -196 43 -208 12 -7 14 -14 6 -27 -5 -10 -7 -20 -5 -23 3 -2 9 -36 15 -75 5
-39 15 -84 21 -99 6 -16 12 -81 12 -144 l2 -115 46 1 c52 2 109 27 109 48 0 8
-12 29 -27 46 -34 41 -102 297 -114 430 -11 124 -22 190 -37 216 -6 12 -8 24
-5 28 3 3 1 6 -5 6 -7 0 -12 8 -12 18 0 11 -9 27 -20 37 -11 10 -20 13 -20 8
0 -6 7 -13 15 -17 16 -6 21 -36 5 -36 -5 0 -16 13 -24 28 -11 22 -12 44 -5
111 5 45 7 87 4 92 -10 15 -48 10 -72 -10z"/>
<path d="M4845 1614 c-21 -15 -19 -31 5 -44 11 -6 20 -17 20 -25 0 -8 5 -15
10 -15 6 0 10 4 10 9 0 5 11 11 25 13 19 4 23 2 15 -7 -8 -9 -4 -11 15 -7 23
4 25 2 25 -35 0 -21 6 -45 12 -51 7 -7 13 -36 14 -64 1 -43 5 -55 28 -75 31
-27 58 -72 49 -86 -3 -5 -14 6 -25 23 -10 18 -22 29 -25 26 -4 -3 3 -19 15
-34 12 -15 27 -38 33 -52 8 -19 12 -21 19 -10 13 21 24 5 12 -17 -6 -10 -8
-31 -5 -46 5 -27 6 -27 29 -12 21 14 24 14 24 0 0 -8 -7 -15 -16 -15 -12 0
-15 -6 -10 -22 3 -13 6 -29 6 -35 0 -7 9 -13 20 -13 22 0 27 -16 8 -23 -8 -3
-3 -12 14 -26 27 -22 27 -23 13 -58 -19 -46 -19 -92 0 -99 26 -10 85 5 85 23
0 10 6 13 16 9 10 -4 22 1 29 11 11 15 9 24 -17 59 -17 24 -42 45 -57 49 -39
10 -54 25 -40 41 6 8 15 11 20 8 18 -10 9 23 -11 41 -11 10 -22 37 -26 64 -3
25 -14 64 -24 86 -10 22 -30 79 -45 128 -15 48 -30 87 -34 87 -5 0 -11 32 -15
70 -3 39 -11 79 -18 89 -12 20 -38 17 -38 -4 0 -7 -7 -16 -16 -19 -15 -6 -15
-4 -3 11 12 15 12 16 -3 10 -10 -3 -18 -2 -18 3 0 6 4 10 8 10 4 0 8 10 9 21
2 18 0 19 -10 6 -14 -18 -83 -35 -73 -18 4 6 16 11 27 11 10 0 19 5 19 10 0
13 -85 8 -105 -6z"/>
<path d="M2530 1579 c0 -21 -16 -55 -57 -117 -13 -19 -23 -47 -23 -63 0 -22
-5 -29 -30 -34 -17 -4 -28 -11 -25 -15 3 -5 -17 -19 -46 -31 -40 -18 -47 -24
-35 -31 17 -9 96 18 96 33 0 4 15 5 33 4 38 -3 67 19 67 51 0 13 5 26 10 29 6
3 10 15 10 26 0 12 12 38 27 59 25 34 31 37 68 34 22 -2 32 -1 23 2 -10 3 -18
12 -18 21 0 12 -3 13 -14 4 -10 -9 -15 -8 -19 3 -3 8 -20 22 -36 31 -30 15
-31 15 -31 -6z"/>
<path d="M5290 1521 c-42 -47 -42 -49 -30 -86 6 -19 18 -35 26 -35 9 0 14 -11
14 -34 0 -41 21 -63 40 -41 7 9 29 15 53 15 41 0 42 14 2 22 -11 2 -19 10 -17
16 1 7 -8 12 -20 12 -21 0 -21 1 -4 13 16 12 17 16 5 38 -8 13 -18 27 -24 31
-5 4 -10 13 -11 20 0 7 -2 21 -2 31 -2 21 -12 21 -32 -2z"/>
</g>
</svg>
